<svg width="192" height="64" viewBox="0 0 192 64" fill="none" xmlns="http://www.w3.org/2000/svg">
<g filter="url(#filter0_d_304_2816)">
<path fill-rule="evenodd" clip-rule="evenodd" d="M55.8218 40.6057H48.8607C49.7608 39.7932 50.0075 36.8737 50.3342 31.5994L50.4176 30.3806C50.6644 27.4577 50.7443 25.1063 50.7443 23.4848C50.7443 22.1042 50.581 21.2126 50.1709 20.8889H57.9522C59.8359 20.8889 63.5233 20.9716 63.5233 24.7827C63.5233 27.3786 61.1461 28.9209 58.9358 29.489C62.0497 29.7334 64.3435 31.2723 64.3435 34.4397C64.4234 37.848 61.1461 40.6057 55.8218 40.6057ZM55.5786 31.0313H54.1849L53.9382 33.9542C53.8548 35.2522 53.7748 36.3091 53.7748 37.607C53.7748 37.7688 54.3483 38.1751 55.6585 38.1751C58.4423 38.1751 60.246 36.7945 60.246 34.5223C60.3294 32.0056 58.1156 31.0313 55.5786 31.0313ZM56.152 23.2404C55.7419 23.2404 55.2519 23.2404 54.7584 23.323C54.5116 24.7035 54.4317 26.0015 54.3483 27.5438C54.3483 27.5438 54.2649 28.7625 54.2649 28.6799H54.7549C57.2954 28.6799 59.5891 27.7882 59.5891 25.516C59.6725 24.2147 58.5257 23.2404 56.152 23.2404ZM80.7229 40.7675C79.0026 40.7675 78.8392 40.6848 77.529 36.0612L77.039 34.357C76.2188 34.7633 74.7452 34.9251 72.4515 34.9251H70.0743L69.6642 35.8168C69.2541 36.7084 68.2706 38.5744 68.2706 39.7105C68.2706 39.955 68.2706 40.196 68.354 40.6022H63.6032C64.9134 39.3043 66.7171 36.1404 69.0908 31.1071L70.4844 28.1842C71.7147 25.5057 73.1049 22.5036 73.1049 22.0974C73.1049 21.6911 73.0214 21.3675 72.8581 20.9612H77.1988C77.1988 20.9612 78.3457 25.1821 79.3292 28.7522L80.1494 31.8369C81.623 37.1113 82.6065 39.6279 83.7534 40.6022C82.61 40.6883 81.2164 40.7675 80.7229 40.7675ZM74.4985 25.5126L71.2212 32.4119H76.4655L74.4985 25.5126ZM99.5629 41.4182C98.0893 41.4182 97.7626 41.1737 97.2691 40.5265L91.6182 32.8973C91.2081 32.2501 90.798 31.8438 90.1446 31.8438H90.0647L89.9813 33.3862C89.9013 35.414 89.7345 37.039 89.7345 38.2543C89.7345 39.5522 89.8978 40.3647 90.3079 40.6883H84.9003C85.7205 40.0376 85.9637 37.7654 86.4572 31.682L86.5406 30.4633C86.7874 27.5404 86.8673 25.189 86.8673 23.5674C86.8673 22.1869 86.704 21.2952 86.2939 20.9716H93.5852C96.0423 20.9716 99.2362 21.3778 99.2362 25.1924C99.2362 28.3563 97.1058 30.0605 94.4853 30.873C94.7321 31.1174 95.2221 31.6855 95.4689 32.0091L99.4829 37.2834C102.023 40.6091 102.187 40.7744 103.087 41.1772C102.023 41.3355 100.546 41.4182 99.5629 41.4182ZM92.3549 23.323C91.8614 23.323 91.288 23.323 90.798 23.4056C90.6346 24.2181 90.5512 25.6778 90.3879 28.0292L90.3079 29.4098C90.5547 29.4924 90.9648 29.4924 91.2081 29.4924C93.6651 29.4924 95.3855 27.9501 95.3855 25.7605C95.3055 24.2147 94.2386 23.323 92.3549 23.323ZM110.131 41.0119C104.971 41.0119 102.023 36.7911 102.023 32.1674C102.023 25.6778 105.627 20.5619 112.425 20.5619C114.556 20.5619 115.539 20.9681 117.339 20.9681L116.849 25.998C115.866 24.2112 114.229 23.0751 112.099 23.0751C107.838 23.0751 106.121 27.6195 106.121 31.5133C106.121 35.7341 108.578 38.0856 111.692 38.0856C113.412 38.0856 114.969 37.6793 117.506 35.896C116.439 38.9841 114.062 41.0119 110.131 41.0119ZM145.191 40.7675C143.471 40.7675 143.391 40.6848 141.997 36.0612L141.507 34.357C140.687 34.7633 139.213 34.9251 136.92 34.9251H134.463L134.052 35.8168C133.396 37.1147 132.659 38.6571 132.659 39.7105C132.659 39.955 132.742 40.2786 132.742 40.6022H118.653C119.473 39.7105 119.717 36.7876 120.127 31.5959L120.21 30.3772C120.457 27.3751 120.537 25.1029 120.537 23.4813C120.537 22.1834 120.373 21.2917 120.047 20.8855H125.534C124.714 21.4536 124.471 24.6175 124.141 29.8918L124.061 31.1105C123.977 33.0591 123.651 35.0869 123.651 36.9529C123.651 37.8446 123.977 38.089 124.961 38.089C128.318 38.089 129.055 38.0064 130.612 37.0355C131.595 35.3313 132.579 33.2209 133.642 31.0313L135.036 28.1084C136.346 25.3508 137.656 22.5105 137.656 22.0216C137.656 21.6154 137.576 21.2917 137.41 20.8855H141.75C141.75 20.8855 143.471 27.2959 143.881 28.6765L144.701 31.7612C146.175 37.0355 147.078 39.5522 148.388 40.5265C147.238 40.6883 145.681 40.7675 145.191 40.7675ZM138.963 25.5126L135.769 32.4119H140.93L138.963 25.5126ZM157.64 29.9778C157.23 30.7903 156.573 31.7612 156.246 32.5737C155.919 34.0334 155.836 35.982 155.836 38.0924C155.836 38.9841 155.999 40.2029 156.409 40.6091H151.002C151.985 39.7174 152.312 34.2813 152.312 32.4945C151.575 30.0605 150.592 27.6264 149.118 24.7035C148.135 22.9167 147.071 21.2126 146.334 20.8889C147.565 20.8063 149.118 20.7271 149.858 20.7271C151.169 20.7271 151.579 20.8889 152.399 22.6757C153.709 25.5952 154.609 27.7882 155.183 29.3306C156.493 27.2202 157.476 25.7605 158.707 23.7327C158.953 23.2472 159.28 22.5966 159.28 22.0285C159.28 21.6223 159.2 21.0542 159.033 20.8924H164.358C163.211 21.1334 158.623 28.3529 157.64 29.9778ZM175.663 25.5126C174.843 24.0528 173.043 22.9167 171.076 22.9167C169.355 22.9167 167.882 23.564 167.882 25.3508C167.882 26.8931 169.765 27.8674 171.732 29.1654C173.863 30.4633 176.073 32.0883 176.073 34.9285C176.073 38.5813 172.469 40.9327 168.208 40.9327C166.488 40.9327 164.688 40.6091 162.637 39.8792L162.964 35.0112C163.948 36.9598 165.748 38.4987 168.452 38.4987C170.499 38.4987 172.139 37.5244 172.139 35.741C172.139 34.2813 170.909 33.307 169.355 32.4153C166.078 30.4667 164.031 28.9278 164.031 26.0875C164.031 21.8667 167.552 20.4896 171.322 20.4896C173.453 20.4896 174.846 20.8958 176.157 20.8958L175.663 25.5126Z" fill="#9BF07D"/>
<path fill-rule="evenodd" clip-rule="evenodd" d="M40.9139 23.7285C40.6671 23.1604 40.257 22.5098 39.5202 22.0243C39.1936 21.7799 38.7835 21.5389 38.3734 21.3736C38.0467 21.291 37.7165 21.2118 37.3099 21.2118H37.2265C36.733 21.2118 35.8329 21.2945 35.3429 22.0243C35.0961 22.2688 35.0162 22.7542 35.0961 23.1604C35.1795 23.4841 35.4228 23.8111 35.7529 23.8903C35.7529 23.8903 35.8364 23.9729 35.9997 23.9729C35.9997 24.0556 35.9163 24.2174 35.9163 24.2174C35.6695 24.4618 35.2594 24.8646 34.0326 24.8646H33.9492C33.2924 24.782 32.8024 24.6202 32.0656 23.8903C31.6555 23.4049 31.4087 22.5098 31.4087 21.1327C31.4087 20.4028 31.3253 19.8347 31.162 19.3493C31.0786 19.0257 30.7519 18.6986 30.5051 18.5368C30.2584 18.375 30.095 18.2924 29.685 18.1306C29.1914 18.0479 28.7014 17.9688 28.2913 17.9688C27.8013 17.9688 27.4711 18.0514 27.3078 18.2924H26.8178L25.9976 18.375C25.5041 18.4576 25.1774 18.6986 24.8507 18.9431C24.7673 19.0257 24.4406 19.3493 24.3607 19.6729C24.3607 19.9174 24.4441 20.1583 24.4441 20.241L24.5275 20.3236C24.6908 20.1618 25.0175 20.0792 25.4276 20.0792C26.0011 20.0792 26.8212 20.3236 26.9846 20.7264C27.3947 21.3771 27.2313 21.8625 27.2313 22.4306C26.9846 23.9729 26.4112 24.7028 25.1843 24.8646C24.9376 24.9472 24.6943 24.9472 24.5275 24.9472C23.6274 24.9472 22.9705 24.7028 22.6439 24.1347V23.9729C22.6439 23.9729 22.7273 23.9729 22.8072 23.8903C23.1339 23.7285 23.3806 23.4841 23.464 23.1604C23.5474 22.7542 23.464 22.3479 23.2173 22.0243C22.7273 21.5389 22.0704 21.2118 21.3336 21.2118C20.8436 21.2118 20.5135 21.2945 20.1868 21.3736C19.2032 21.6181 18.3031 22.4271 17.6463 23.7285C17.1562 24.7028 16.8261 25.8389 16.7462 27.1368C16.6627 28.4348 16.6627 29.4917 16.7462 30.4625C16.8296 32.0841 17.1562 33.0584 17.5663 34.1153C17.9764 35.1688 18.4665 36.1431 19.0399 37.0382C19.2032 37.2827 19.2866 37.5237 19.45 37.6889L19.5334 37.6063C19.6168 37.5237 19.6967 37.4445 19.7801 37.2827C20.1068 37.0382 20.6803 36.2292 20.8436 35.9847C21.007 35.7403 21.2537 35.3341 21.417 34.9313L21.5005 34.7694L21.6638 34.8521C21.8271 35.0139 21.9105 35.2583 21.9105 35.5027C21.9105 35.7472 21.8271 35.9882 21.6638 36.4771C21.5005 37.0451 21.1738 37.6958 20.8436 38.343C20.927 38.4257 20.927 38.5875 20.8436 38.5875C20.5969 38.9937 20.5969 39.1555 20.5969 39.3173H20.6803C20.7637 39.3173 21.0904 39.2347 21.3371 38.9937C21.5839 38.8319 22.2372 38.2638 23.0574 37.1277C23.7143 36.3152 24.1244 35.4236 24.6144 34.4493L24.6978 34.2875L24.8611 34.3701L25.1079 34.5319C25.1913 34.6937 25.1913 34.9381 25.1913 35.1791C25.1079 35.8298 24.7013 36.7215 24.4545 37.3722C23.9645 38.5083 23.0609 39.727 22.4075 40.6187C22.4075 40.7013 22.2442 40.8631 22.1608 40.8631C22.2442 40.9458 22.3241 41.0249 22.4875 41.1076L22.7342 41.352C23.6343 42.0819 24.4545 42.6499 25.518 43.218C26.3382 43.7034 27.9751 44.5159 29.1219 44.8395C30.2688 44.5951 31.9057 43.7034 32.7259 43.218C33.7894 42.6499 34.6095 42.0819 35.5097 41.352L35.7564 41.1076L36.0831 40.8631C36.1665 40.7013 36.1665 40.6187 36.1665 40.5395L36.0831 40.4569C35.4263 39.6444 34.5261 38.3465 34.0361 37.2104C33.7894 36.5631 33.3793 35.668 33.2993 35.0208C33.2159 34.7763 33.2993 34.5353 33.3827 34.3701L33.5461 34.2083C33.6295 34.1256 33.7928 34.1256 33.7928 34.1256L33.8762 34.2875C34.3663 35.2618 34.8598 36.1534 35.4332 36.9659C36.2534 38.102 36.9068 38.6701 37.1535 38.8319C37.4003 39.0763 37.6435 39.1555 37.8104 39.1555H37.8938C37.9772 39.0729 37.8938 38.9111 37.647 38.5048C37.5636 38.4222 37.5636 38.343 37.5636 38.2604C37.2369 37.6097 36.9068 36.9625 36.7434 36.3944C36.5801 35.909 36.4967 35.5819 36.4967 35.4201C36.4967 35.1757 36.5801 34.9347 36.7434 34.7694L36.9068 34.6868L36.9902 34.8486C37.1535 35.2549 37.4837 35.7403 37.647 35.9847L38.6306 37.2035C38.7939 37.3653 38.8773 37.4479 38.8773 37.5271L38.9607 37.6097C39.0441 37.5271 39.1241 37.3653 39.2874 37.0417L39.3534 36.9556C39.8469 36.1431 40.337 35.0896 40.7471 34.0327C41.1571 33.0584 41.4039 32.0049 41.5672 30.3799C41.6506 29.4056 41.7306 28.3521 41.5672 27.0542C41.6506 25.8389 41.3205 24.6202 40.9139 23.7285Z" fill="#9BF07D"/>
</g>
<defs>
<filter id="filter0_d_304_2816" x="12.6836" y="14.9688" width="167.473" height="34.8711" filterUnits="userSpaceOnUse" color-interpolation-filters="sRGB">
<feFlood flood-opacity="0" result="BackgroundImageFix"/>
<feColorMatrix in="SourceAlpha" type="matrix" values="0 0 0 0 0 0 0 0 0 0 0 0 0 0 0 0 0 0 127 0" result="hardAlpha"/>
<feOffset dy="1"/>
<feGaussianBlur stdDeviation="2"/>
<feComposite in2="hardAlpha" operator="out"/>
<feColorMatrix type="matrix" values="0 0 0 0 0 0 0 0 0 0 0 0 0 0 0 0 0 0 0.04 0"/>
<feBlend mode="normal" in2="BackgroundImageFix" result="effect1_dropShadow_304_2816"/>
<feBlend mode="normal" in="SourceGraphic" in2="effect1_dropShadow_304_2816" result="shape"/>
</filter>
</defs>
</svg>
