<svg width="192" height="64" viewBox="0 0 192 64" fill="none" xmlns="http://www.w3.org/2000/svg">
<g filter="url(#filter0_d_304_2822)">
<path fill-rule="evenodd" clip-rule="evenodd" d="M169.018 19.7422H172.421V39.0252C171.964 38.8479 171.477 38.9151 170.992 38.9819C170.219 39.0886 169.452 39.1944 168.821 38.3041C168.794 38.2649 168.624 38.3356 168.43 38.4162C168.29 38.4742 168.138 38.5372 168.019 38.5679C164.922 39.3477 162.062 39.0663 159.849 36.4924C157.913 34.2411 157.61 30.3892 159.044 27.6512C160.581 24.7168 164.072 23.342 167.637 24.2683C167.918 24.3409 168.195 24.4305 168.512 24.5329L168.513 24.5334C168.669 24.5838 168.835 24.6373 169.015 24.6934C169.018 23.0371 169.018 21.4541 169.018 19.7422ZM161.562 31.4474C161.545 34.0975 163.041 35.8124 165.406 35.8593C167.854 35.9062 169.43 34.1825 169.418 31.468C169.406 28.8472 167.843 27.1118 165.492 27.1118C163.117 27.1118 161.58 28.8091 161.562 31.4474Z" fill="#9BF07D"/>
<path fill-rule="evenodd" clip-rule="evenodd" d="M128.232 23.9731C128.692 24.1439 129.178 24.0769 129.662 24.0103C130.431 23.9042 131.195 23.799 131.838 24.6561C131.871 24.7005 132.053 24.628 132.254 24.5482C132.385 24.496 132.524 24.4407 132.634 24.4128C135.667 23.6507 138.547 23.8207 140.713 26.3447C142.893 28.8862 143.058 31.8704 141.835 34.8781C140.492 38.1789 136.742 39.712 132.954 38.6655C132.694 38.594 132.439 38.5083 132.138 38.4074C132.006 38.3635 131.867 38.3166 131.714 38.2668V43.1418H128.232V23.9731ZM131.294 31.4952C131.303 34.1423 132.828 35.8513 135.194 35.8572C137.612 35.8631 139.199 34.0719 139.158 31.3867C139.117 28.7866 137.521 27.0804 135.153 27.1098C132.769 27.1391 131.288 28.8217 131.294 31.4952Z" fill="#9BF07D"/>
<path d="M126.574 26.6415C125.822 25.7034 125.157 24.8738 124.435 23.968C121.957 25.8822 119.544 27.7466 116.899 29.7957V19.776H113.505V38.8744H116.935C116.935 38.5418 116.945 38.2163 116.955 37.8965C116.977 37.2018 116.998 36.5337 116.911 35.8814C116.7 34.3043 117.443 33.4512 118.813 32.8942C120.262 34.5661 121.69 36.2109 123.131 37.8711L124.132 39.0239C124.676 38.5592 125.183 38.124 125.679 37.6995L125.686 37.6929C126.044 37.3859 126.396 37.0844 126.75 36.7813C125.688 35.5412 124.664 34.3482 123.65 33.166L123.605 33.1138C122.901 32.2932 122.201 31.4776 121.496 30.6546C122.37 29.9642 123.209 29.3008 124.036 28.6473L124.103 28.5944C124.93 27.9398 125.746 27.2946 126.574 26.6415Z" fill="#9BF07D"/>
<path fill-rule="evenodd" clip-rule="evenodd" d="M156.393 38.8851C154.28 39.0346 153.706 39.0752 153.435 38.8085C153.335 38.7091 153.276 38.5671 153.195 38.3721C152.599 38.4251 152.013 38.4969 151.434 38.5678C150.155 38.7243 148.911 38.8764 147.679 38.8119C145.478 38.6946 144.062 37.1497 143.791 35.1006C143.524 33.0897 144.561 31.2546 146.657 30.5393C147.708 30.179 148.847 30.0533 149.976 29.9286C150.206 29.9032 150.436 29.8778 150.665 29.8504C151.186 29.7866 151.715 29.8015 152.284 29.8176C152.55 29.8251 152.824 29.8328 153.11 29.8328C153.234 28.4463 152.722 27.4203 151.429 27.3675C150.102 27.3105 148.768 27.4191 147.346 27.535C146.722 27.5858 146.081 27.638 145.417 27.6782C145.252 27.133 144.982 26.233 144.691 25.2569C147.171 24.181 149.651 23.797 152.196 24.2279C154.436 24.609 156.266 26.5145 156.358 28.7365C156.454 31.0728 156.433 33.4177 156.411 35.7952C156.402 36.8185 156.393 37.8478 156.393 38.8851ZM153.195 32.8346C151.454 32.7392 149.813 32.9068 149.099 33.0254C148.584 33.1104 146.911 33.7635 146.911 34.7497C146.911 35.2451 147.206 36.2121 149.369 36.2121C151.403 36.2121 152.92 34.9665 153.195 32.8346Z" fill="#9BF07D"/>
<path fill-rule="evenodd" clip-rule="evenodd" d="M104.058 38.9369C108.646 38.975 111.673 36.0435 111.69 31.5438C111.705 26.9971 108.766 24.0627 104.176 24.0393C99.5766 24.01 96.5731 26.915 96.5291 31.4294C96.4879 35.9233 99.4708 38.8988 104.058 38.9369ZM104.246 27.1085C106.691 27.1847 108.217 28.9319 108.175 31.6083C108.137 34.1703 106.539 35.8442 104.129 35.8501C101.651 35.8589 99.9586 34.0033 100.023 31.3415C100.085 28.753 101.801 27.0352 104.246 27.1085Z" fill="#9BF07D"/>
<path fill-rule="evenodd" clip-rule="evenodd" d="M87.8337 38.9347C83.2375 38.9553 80.2458 36.0297 80.237 31.5123C80.2282 26.9715 83.1787 24.043 87.775 24.0313C92.3771 24.0196 95.3629 26.9363 95.3805 31.4508C95.3982 35.9652 92.4241 38.9171 87.8337 38.9347ZM87.7338 27.1064C85.2359 27.1474 83.6901 28.9297 83.7518 31.6941C83.8106 34.2239 85.471 35.8978 87.8778 35.8479C90.3053 35.801 91.9392 33.9923 91.901 31.4009C91.8628 28.8037 90.176 27.0653 87.7338 27.1064Z" fill="#9BF07D"/>
<path d="M78.809 35.1196C78.3699 34.7108 77.9181 34.29 77.4369 33.8421C74.6186 36.1872 72.0413 36.4745 70.1957 34.6746C68.691 33.206 68.4677 30.1866 69.9341 28.6564C70.5983 27.9645 71.6004 27.4076 72.5379 27.2112C74.504 26.8008 76.0703 27.8707 77.4369 29.1254C77.6492 28.927 77.856 28.734 78.0585 28.5449C78.6073 28.0326 79.125 27.5493 79.638 27.0675C76.4435 23.4618 70.7952 23.0192 67.6272 26.0444C64.7825 28.7619 64.7795 34.1997 67.6243 36.9172C70.7893 39.9424 76.42 39.5056 79.6439 35.897C79.3679 35.6401 79.0911 35.3823 78.809 35.1196Z" fill="#9BF07D"/>
<path d="M50.6296 30.9564C50.6144 31.2444 50.5994 31.5313 50.673 31.758C52.9653 31.8401 54.5728 30.6616 55.0929 28.5393C55.5308 26.7394 54.5787 24.7606 52.8536 23.8959C50.7347 22.8288 48.7687 23.5529 46.644 26.2205C46.5326 26.1583 46.4209 26.0958 46.309 26.0332C45.9305 25.8215 45.5508 25.6092 45.1834 25.4055C45.5243 23.3418 44.4193 21.7207 42.321 21.1139C39.9171 20.4192 37.9922 21.665 36.7285 24.8017C35.0152 23.2421 33.1138 22.6471 31.0156 23.9046C29.4962 24.8163 28.8115 26.2322 29.0525 27.9999C29.3787 30.4037 31.0626 31.4062 33.3548 31.8107C33.2605 32.5928 33.1665 33.372 33.0728 34.1492C32.7575 36.7628 32.4449 39.3541 32.1323 41.9594H47.2347C47.361 41.0037 47.4786 40.1067 47.6138 39.0602H35.5236C35.5 39.0602 35.4763 39.0602 35.4525 39.0603C34.6686 39.0613 33.8134 39.0624 33.8192 37.9756C33.8243 36.9394 34.5845 36.9539 35.2845 36.9673C35.3766 36.969 35.4678 36.9708 35.556 36.9701C37.3 36.9594 39.0424 36.9612 40.7856 36.9629C41.4393 36.9636 42.0931 36.9642 42.7472 36.9642H47.8606C47.9281 36.4313 47.9912 35.9126 48.053 35.4042C48.2014 34.1843 48.3426 33.0239 48.5189 31.8694C48.5469 31.6852 48.554 31.4803 48.5611 31.2717C48.5871 30.5171 48.6147 29.7138 49.6415 29.6679C50.6999 29.6188 50.6646 30.2908 50.6296 30.9564Z" fill="#9BF07D"/>
<path fill-rule="evenodd" clip-rule="evenodd" d="M20.5859 31.4899C20.5889 42.814 29.846 51.9953 41.2749 52.0012C52.7185 52.007 62.005 42.8521 62.0197 31.5456C62.0374 20.2038 52.8037 10.9844 41.4042 10.961C29.8754 10.9375 20.5859 20.0983 20.5859 31.4899ZM47.0059 22.4098C47.0528 22.4351 47.108 22.4648 47.1701 22.505C49.8415 20.925 52.457 20.837 54.8785 22.7806C56.968 24.4603 57.7526 26.738 56.9856 29.3323C56.0482 32.4983 53.7089 33.923 50.3205 33.9933C50.2294 34.7124 50.1365 35.4283 50.0438 36.1423C49.8104 37.9403 49.5786 39.7256 49.383 41.5154L49.3733 41.6042C49.1012 44.0981 49.1009 44.1009 46.597 44.1009C44.9661 44.1009 43.3349 44.1013 41.7035 44.1016C38.4405 44.1022 35.1771 44.1029 31.9149 44.1009C30.04 44.1009 29.8078 43.84 30.037 41.9434C30.1341 41.1435 30.2368 40.3445 30.3395 39.5457C30.5602 37.8296 30.7807 36.1142 30.9451 34.392C30.9863 33.964 30.6718 33.3015 30.3133 33.0729C27.3598 31.1967 26.1961 28.1539 27.3774 25.1492C28.5647 22.1181 31.5593 20.6875 35.0741 21.4086C35.465 21.4878 36.1056 21.3705 36.326 21.1008C39.065 17.7443 44.7339 18.1987 46.8468 22.291C46.8709 22.3371 46.9264 22.367 47.0059 22.4098Z" fill="#9BF07D"/>
</g>
<defs>
<filter id="filter0_d_304_2822" x="16.5859" y="7.96094" width="159.835" height="49.04" filterUnits="userSpaceOnUse" color-interpolation-filters="sRGB">
<feFlood flood-opacity="0" result="BackgroundImageFix"/>
<feColorMatrix in="SourceAlpha" type="matrix" values="0 0 0 0 0 0 0 0 0 0 0 0 0 0 0 0 0 0 127 0" result="hardAlpha"/>
<feOffset dy="1"/>
<feGaussianBlur stdDeviation="2"/>
<feComposite in2="hardAlpha" operator="out"/>
<feColorMatrix type="matrix" values="0 0 0 0 0 0 0 0 0 0 0 0 0 0 0 0 0 0 0.04 0"/>
<feBlend mode="normal" in2="BackgroundImageFix" result="effect1_dropShadow_304_2822"/>
<feBlend mode="normal" in="SourceGraphic" in2="effect1_dropShadow_304_2822" result="shape"/>
</filter>
</defs>
</svg>
