<svg width="192" height="64" viewBox="0 0 192 64" fill="none" xmlns="http://www.w3.org/2000/svg">
<g filter="url(#filter0_d_304_2812)">
<path fill-rule="evenodd" clip-rule="evenodd" d="M117.759 27.7419V19.5446H121.516V40.251H117.841V38.7938C117.813 38.8141 117.791 38.8295 117.772 38.8422C117.741 38.8634 117.72 38.8774 117.704 38.8951C116.452 40.2895 114.848 40.7747 113.031 40.5986C109.954 40.3008 107.615 38.1251 107.008 34.9909C106.54 32.5706 106.945 30.314 108.514 28.3466C110.299 26.1097 113.547 25.2945 116.038 26.4239C116.687 26.7178 117.233 27.1492 117.759 27.7419ZM117.961 33.1323C117.953 33.0761 117.946 33.007 117.937 32.9288C117.914 32.7204 117.884 32.4477 117.816 32.1845C117.462 30.8156 116.633 29.8667 115.218 29.5485C113.797 29.2281 112.529 29.5525 111.577 30.7023C110.798 31.6438 110.58 32.7643 110.761 33.9503C111.251 37.1689 114.452 37.7498 116.277 36.5846C117.469 35.8226 117.915 34.6597 117.961 33.1323Z" fill="#9BF07D"/>
<path fill-rule="evenodd" clip-rule="evenodd" d="M65.8189 44.6191L67.1374 41.6208C67.3703 41.7238 67.5989 41.8313 67.8256 41.938C68.3204 42.1707 68.8071 42.3997 69.3134 42.5697C70.6472 43.0175 72.0227 43.1675 73.3953 42.7361C74.842 42.2815 75.6214 41.2573 75.7776 39.7735C75.8103 39.4608 75.8013 39.1436 75.7926 38.8373C75.7888 38.7004 75.785 38.5657 75.785 38.4345C75.6501 38.5386 75.5175 38.648 75.3844 38.7579C75.094 38.9975 74.8014 39.239 74.479 39.4304C72.4067 40.6601 69.4946 40.3753 67.5755 38.785C66.1613 37.613 65.371 36.0958 65.1169 34.3011C64.8411 32.3518 65.1477 30.5079 66.2274 28.8276C67.9014 26.2216 71.2609 25.2036 74.0466 26.4554C74.7297 26.7628 75.3012 27.2231 75.8351 27.8408V26.3195H79.5501V26.6411C79.5501 27.8665 79.5509 29.0919 79.5516 30.3173C79.5535 33.3044 79.5554 36.2929 79.5461 39.2798C79.5404 41.0898 79.0447 42.7435 77.7855 44.1051C76.7302 45.2464 75.3907 45.8901 73.8716 46.1319C71.1674 46.5627 68.5818 46.21 66.1739 44.8484C66.0966 44.8053 66.023 44.7557 65.9421 44.7012C65.9032 44.675 65.8623 44.6474 65.8189 44.6191ZM75.9614 32.8381C75.9478 32.6649 75.9343 32.4916 75.9023 32.3218C75.6573 31.0236 74.973 30.0487 73.6893 29.61C72.4119 29.1735 71.1823 29.3263 70.1384 30.2242C69.127 31.0944 68.804 32.2539 68.947 33.5436C69.2439 36.2164 71.7475 37.2643 73.809 36.4677C75.1537 35.948 75.9565 34.6634 75.9821 33.0788C75.974 32.9988 75.9677 32.9184 75.9614 32.8381Z" fill="#9BF07D"/>
<path fill-rule="evenodd" clip-rule="evenodd" d="M157.511 38.826C158.141 39.5263 158.819 40.0132 159.632 40.2991C162.166 41.1913 165.119 40.3223 166.831 38.1296C168.366 36.1651 168.738 33.9174 168.262 31.5215C167.645 28.4213 165.313 26.2688 162.253 25.9653C160.513 25.7927 158.96 26.228 157.719 27.5234C157.669 27.5757 157.62 27.6291 157.56 27.6957L157.559 27.6968C157.524 27.7352 157.485 27.778 157.439 27.8274V26.3226H153.763V46.016H157.511V38.826ZM158.514 30.3541C159.194 29.711 160.024 29.4449 160.535 29.4409C162.835 29.4398 164.305 30.7674 164.516 32.6493C164.648 33.828 164.457 34.9309 163.689 35.8684C162.028 37.8963 158.71 37.4162 157.674 35.0107C156.982 33.4045 157.326 31.4768 158.514 30.3541Z" fill="#9BF07D"/>
<path fill-rule="evenodd" clip-rule="evenodd" d="M101.655 27.8029V26.3235H105.344V40.2536H101.663V38.7834C101.634 38.8084 101.611 38.8272 101.592 38.8426C101.561 38.8677 101.541 38.8837 101.525 38.9022C100.288 40.2803 98.7033 40.7456 96.905 40.6064C93.8157 40.3663 91.4306 38.0881 90.8311 34.9533C90.3913 32.6519 90.7565 30.4887 92.1713 28.5626C93.7969 26.3501 96.7745 25.3848 99.3426 26.2205C100.154 26.4843 100.84 26.9418 101.421 27.5594L101.478 27.6182C101.524 27.6664 101.578 27.7222 101.655 27.8029ZM101.763 32.8885C101.738 32.6749 101.704 32.3875 101.628 32.1113C101.272 30.8154 100.474 29.9044 99.1391 29.5693C97.7973 29.2324 96.5569 29.4764 95.5831 30.5062C94.5906 31.5559 94.3518 32.845 94.6419 34.2179C95.3148 37.4048 98.6981 37.7241 100.356 36.4134C101.368 35.6123 101.76 34.5299 101.789 33.0896C101.781 33.0354 101.772 32.9667 101.763 32.8885Z" fill="#9BF07D"/>
<path fill-rule="evenodd" clip-rule="evenodd" d="M134.163 36.1291C134.01 36.2175 133.862 36.3076 133.716 36.3964C133.402 36.5874 133.099 36.772 132.778 36.9188C131.534 37.489 130.244 37.6435 128.943 37.1215C127.794 36.6607 127.225 35.7379 126.967 34.5433H136.908C136.914 34.5081 136.92 34.4754 136.926 34.4443C136.936 34.3853 136.946 34.3321 136.951 34.2783C137.027 33.3646 137.012 32.4531 136.836 31.5501C136.476 29.7129 135.631 28.1656 134.055 27.0786C132.74 26.1711 131.258 25.8501 129.679 25.9503C127.216 26.1065 125.274 27.1624 124.042 29.3268C123.07 31.0343 122.858 32.8952 123.185 34.8049C123.618 37.3344 124.983 39.1891 127.435 40.1102C129.643 40.9396 131.869 40.7817 134.053 39.9557C134.902 39.6347 135.65 39.1399 136.343 38.5114L134.163 36.1291ZM129.981 29.1796C131.675 29.1303 132.873 30.1545 133.174 31.9549H127.005C127.266 30.2423 128.409 29.2255 129.981 29.1796Z" fill="#9BF07D"/>
<path d="M138.547 26.3152H142.322V26.6487C142.322 27.2791 142.321 27.9096 142.321 28.54C142.319 30.3323 142.316 32.1248 142.331 33.9169C142.335 34.3914 142.404 34.8794 142.533 35.3351C142.806 36.2902 143.474 36.8762 144.456 37.0494C145.562 37.2448 146.609 37.1281 147.395 36.2115C147.913 35.608 148.056 34.8664 148.06 34.097C148.064 32.9121 148.063 31.7269 148.062 30.5418C148.061 30.0678 148.061 29.5938 148.06 29.1199V26.3277H151.837V28.8737C151.837 29.5568 151.838 30.24 151.838 30.9232V30.954C151.838 32.0795 151.839 33.205 151.838 34.3302C151.837 35.3397 151.681 36.3197 151.259 37.2464C150.69 38.4937 149.774 39.4193 148.514 39.9509C146.232 40.9151 143.925 40.9162 141.677 39.853C139.951 39.0366 138.953 37.6054 138.683 35.7461C138.559 34.8892 138.556 34.0126 138.554 33.1398C138.554 32.9563 138.553 32.7728 138.552 32.5899C138.539 31.1912 138.542 29.7923 138.545 28.3933C138.546 27.8125 138.547 27.2317 138.547 26.651V26.3152Z" fill="#9BF07D"/>
<path d="M81.448 40.2542H85.2274V39.9326C85.2274 39.6414 85.2272 39.3502 85.2271 39.059C85.2267 38.3795 85.2263 37.7001 85.2279 37.0203C85.2289 36.5707 85.2281 36.121 85.2273 35.6713C85.2254 34.5471 85.2234 33.423 85.249 32.2992C85.2866 30.6698 86.3686 29.606 87.9965 29.5347C88.8415 29.4979 89.6551 29.6542 90.4768 29.9627C90.5486 29.4888 90.62 29.0172 90.6917 28.544C90.8089 27.7704 90.9268 26.9927 91.0477 26.1939C88.7914 25.6996 86.7265 25.7574 85.1134 27.7728V26.3224H81.448V40.2542Z" fill="#9BF07D"/>
<path d="M57.0648 14.8608C58.0996 15.8762 59.1295 16.887 60.1533 17.8914L60.2898 17.1574C60.5982 15.4986 60.9206 13.7648 61.249 12C59.2177 12.3657 57.2286 12.7241 55.2509 13.0808C55.857 13.6755 56.4617 14.2689 57.0648 14.8608Z" fill="#9BF07D"/>
<path fill-rule="evenodd" clip-rule="evenodd" d="M49.7044 14.1458C52.7681 17.2183 55.8512 20.3101 58.9588 23.4262L58.9344 23.4525C58.9016 23.488 58.8499 23.544 58.7958 23.5977C57.9799 24.4091 57.1635 25.2204 56.3472 26.0315L54.7111 27.6576C53.4251 28.9354 52.1396 30.2132 50.8542 31.4915C50.4781 31.8655 50.1023 32.2397 49.7265 32.614C48.7244 33.6119 47.7222 34.6098 46.7153 35.6029C46.566 35.7501 46.5335 35.8616 46.6173 36.0626C46.8915 36.7178 47.1601 37.3752 47.4287 38.0325C47.6913 38.6753 47.9539 39.3181 48.2218 39.9589C48.309 40.1683 48.2748 40.2844 48.1135 40.4412C46.9111 41.6156 45.7137 42.7949 44.5163 43.9743L44.5102 43.9803C43.9449 44.537 43.3797 45.0936 42.814 45.6498C41.9077 46.5408 40.999 47.4299 40.0903 48.3189L39.2483 49.1429C39.207 49.1831 39.1636 49.2212 39.1104 49.2678C39.0864 49.2888 39.0604 49.3117 39.0318 49.3371L37.6041 46.1368C36.5696 43.8183 35.5351 41.4997 34.506 39.1787C34.4154 38.9743 34.2895 38.8486 34.0872 38.7575C30.6936 37.2317 27.3022 35.7003 23.9109 34.1688C23.835 34.1346 23.7608 34.0969 23.6662 34.0489C23.6123 34.0215 23.5518 33.9908 23.4807 33.9554C23.619 33.8243 23.755 33.6974 23.8886 33.5726C24.1686 33.3111 24.4387 33.0588 24.6994 32.7982C27.3068 30.1922 29.9124 27.5851 32.5089 24.9689C32.7277 24.7481 32.8929 24.7034 33.1881 24.8296C33.911 25.1385 34.6391 25.4357 35.3672 25.733C35.9108 25.9549 36.4545 26.1768 36.9959 26.4035C37.1902 26.4851 37.2945 26.4454 37.433 26.3073C38.1138 25.6262 38.7984 24.9486 39.4829 24.2711C39.8976 23.8607 40.3125 23.45 40.7263 23.0389C41.9622 21.8109 43.1957 20.5807 44.4288 19.3499C44.86 18.9194 45.2905 18.4882 45.7209 18.0571C46.4912 17.2856 47.2615 16.5141 48.0361 15.7463C48.4083 15.3764 48.7894 15.015 49.1816 14.6431C49.3536 14.4799 49.5278 14.3147 49.7044 14.1458ZM47.8799 22.3839C46.3358 22.3805 45.0669 23.6169 45.0322 25.1031C44.9928 26.7817 46.3786 28.0352 47.8571 28.0165C49.6485 27.9933 50.7853 26.634 50.7203 25.0289C50.6639 23.656 49.5522 22.3958 47.8799 22.3839Z" fill="#9BF07D"/>
<path d="M31.9873 50.318L30.5145 46.9715C30.4193 46.7552 30.3243 46.5389 30.2293 46.3225C29.9151 45.6067 29.6009 44.8908 29.278 44.1787C29.2256 44.0632 29.1128 43.9448 28.9977 43.8905C27.43 43.1521 25.8596 42.4201 24.289 41.688L23.0036 41.0886C22.9392 41.0584 22.876 41.0258 22.8038 40.9884C22.7622 40.9669 22.7175 40.9438 22.668 40.9188C22.6947 40.8885 22.7187 40.8603 22.7413 40.8338C22.7845 40.7832 22.8225 40.7386 22.864 40.6974C23.1601 40.4026 23.4568 40.1082 23.7534 39.8138L23.7545 39.8127C24.4041 39.1681 25.0539 38.5231 25.6986 37.874C25.8411 37.7308 25.9465 37.707 26.1357 37.7947C27.1004 38.2402 28.0665 38.6825 29.0326 39.1247C30.1067 39.6163 31.1818 40.1084 32.254 40.6045C32.3925 40.6685 32.5309 40.8067 32.5942 40.9442C33.1014 42.0481 33.6035 43.1545 34.1056 44.2608C34.48 45.0855 34.8547 45.9111 35.2311 46.7348C35.3183 46.9262 35.3029 47.0468 35.1474 47.1991C34.4253 47.9059 33.7089 48.6186 32.9925 49.3313C32.717 49.6055 32.441 49.88 32.1651 50.1538C32.1327 50.1868 32.0983 50.2178 32.0514 50.26L31.9873 50.318Z" fill="#9BF07D"/>
</g>
<defs>
<filter id="filter0_d_304_2812" x="18.668" y="9" width="153.788" height="46.3184" filterUnits="userSpaceOnUse" color-interpolation-filters="sRGB">
<feFlood flood-opacity="0" result="BackgroundImageFix"/>
<feColorMatrix in="SourceAlpha" type="matrix" values="0 0 0 0 0 0 0 0 0 0 0 0 0 0 0 0 0 0 127 0" result="hardAlpha"/>
<feOffset dy="1"/>
<feGaussianBlur stdDeviation="2"/>
<feComposite in2="hardAlpha" operator="out"/>
<feColorMatrix type="matrix" values="0 0 0 0 0 0 0 0 0 0 0 0 0 0 0 0 0 0 0.04 0"/>
<feBlend mode="normal" in2="BackgroundImageFix" result="effect1_dropShadow_304_2812"/>
<feBlend mode="normal" in="SourceGraphic" in2="effect1_dropShadow_304_2812" result="shape"/>
</filter>
</defs>
</svg>
