<svg width="192" height="64" viewBox="0 0 192 64" fill="none" xmlns="http://www.w3.org/2000/svg">
<g filter="url(#filter0_d_304_2802)">
<path d="M69.9514 27.4672C71.6722 26.116 74.0892 24.9771 76.6803 24.9771C79.136 24.9771 81.1854 25.9808 81.1854 29.8029V42.7939H77.763V30.6136C77.763 28.4323 76.7963 27.8339 75.114 27.8339C73.1998 27.8339 71.421 28.7412 69.9707 29.5712V42.7939H66.5484V19.3019H68.4238C69.7387 19.3019 69.9707 19.6108 69.9707 21.5797V27.4672H69.9514Z" fill="#9BF07D"/>
<path d="M87.2381 34.5903C87.4105 38.7017 89.2693 40.2434 92.5464 40.2434C94.7885 40.2434 96.3216 39.5201 97.3756 38.6636H98.4679V41.0048C97.2032 41.8612 95.3059 42.7939 92.029 42.7939C86.7015 42.7939 83.7311 39.4249 83.7311 33.9812C83.7311 28.4613 87.1613 25.0162 91.7031 25.0162C96.3025 25.0162 99.0045 27.7 99.0045 33.3912C99.0045 33.848 98.9662 34.4571 98.9662 34.5903H87.2381ZM87.2956 32.3633H95.6318C95.5743 28.6136 94.0987 27.3383 91.7031 27.3383C89.4227 27.3383 87.6595 28.6898 87.2956 32.3633Z" fill="#9BF07D"/>
<path d="M111.592 40.6812C110.286 42.0708 108.711 42.7939 106.387 42.7939C103.218 42.7939 100.914 41.0048 100.914 37.6357C100.914 34.0954 103.756 32.3633 107.693 32.3633C109.191 32.3633 110.305 32.5346 111.496 32.8201V30.5361C111.496 28.4804 110.286 27.5858 107.981 27.5858C105.907 27.5858 104.313 28.2139 103.199 29.0133H102.124V26.5009C103.66 25.7395 105.6 25.0162 108.404 25.0162C112.552 25.0162 114.914 26.5009 114.914 30.3077V42.5845H113.57C112.264 42.6037 111.803 42.223 111.592 40.6812ZM111.496 38.4923V34.8187C110.536 34.6284 109.46 34.4951 108.25 34.4951C105.907 34.4951 104.236 35.3517 104.236 37.4454C104.236 39.5963 105.6 40.4909 107.482 40.4909C109.326 40.4718 110.497 39.6153 111.496 38.4923Z" fill="#9BF07D"/>
<path d="M130.059 40.2305C128.874 41.6652 127.05 42.7939 124.698 42.7939C121.125 42.7939 118.096 40.1923 118.096 34.1471C118.096 27.3175 121.727 24.9262 125.169 24.9262C127.52 24.9262 128.931 25.6341 130.041 26.7245V19.3019H131.865C133.182 19.3019 133.37 19.6271 133.37 21.5593V42.5834H131.169C130.417 42.6028 130.153 42.201 130.059 40.2305ZM130.022 37.9731V29.1158C129.044 28.1784 127.859 27.6427 126.091 27.6427C123.833 27.6427 121.445 28.8671 121.445 33.9557C121.445 38.7192 123.175 40.2688 125.507 40.2688C127.407 40.307 128.743 39.4079 130.022 37.9731Z" fill="#9BF07D"/>
<path d="M136.552 33.9812C136.552 28.4613 140.127 25.0162 144.825 25.0162C149.523 25.0162 153.098 28.4613 153.098 33.9812C153.098 39.4821 149.523 42.7939 144.825 42.7939C140.127 42.7939 136.552 39.4821 136.552 33.9812ZM149.637 33.9812C149.637 29.8128 147.754 27.5667 144.806 27.5667C141.896 27.5667 139.975 29.8128 139.975 33.9812C139.975 38.1497 141.896 40.2434 144.806 40.2434C147.754 40.2434 149.637 38.1687 149.637 33.9812Z" fill="#9BF07D"/>
<path d="M167.477 38.4363V25.0162H170.917V42.5625H168.76C167.943 42.5625 167.613 42.2925 167.516 40.5766C165.766 41.8105 163.453 42.7939 161.12 42.7939C158.341 42.7939 156.28 41.6563 156.28 38.1085V25.0162H159.721V37.3179C159.721 39.5739 160.829 40.0945 162.462 40.0945C164.25 40.1138 166.058 39.2654 167.477 38.4363Z" fill="#9BF07D"/>
<path d="M173.463 24.7716H175.567V19.9368H177.614C178.666 19.9368 178.991 20.3299 178.991 21.8432L178.953 24.7716H182.817V27.2283H178.953V37.743C178.953 39.6494 179.718 40.1997 181.44 40.1997H183.009V42.4599C182.396 42.5974 181.44 42.7939 180.254 42.7939C177.308 42.7939 175.586 41.5165 175.586 38.195V27.2283H173.482V24.7716H173.463Z" fill="#9BF07D"/>
<path d="M55.664 29.562C52.1214 36.1996 43.3513 39.5088 34.3103 39.5088C27.1278 39.5088 20.0614 38.5605 13.905 35.832C28.6185 37.3995 42.8673 36.7802 55.664 29.562ZM55.664 26.7947C51.3663 25.5175 47.4942 25.1498 43.4869 25.1885C33.3229 25.2659 23.0429 28.3235 13.9631 32.3293C21.1843 25.9239 31.929 21.2601 42.6931 21.2601C47.8234 21.2601 53.7282 23.4469 55.664 26.7947ZM57.6388 28.2461C57.6388 21.4343 47.3588 18.667 41.4927 18.667C32.2968 18.667 24.5723 22.0148 17.9706 25.6917C17.564 24.9563 16.9832 24.8208 16.0733 24.7047C14.7181 24.5886 13.8857 24.5306 12.8596 24.5306C11.7367 24.5306 10.0524 24.608 8.73597 24.8208C8.09709 24.9369 7.88413 25.4401 8.05837 26.2142C8.63917 28.3235 9.51036 30.22 10.6526 32.0003C10.1492 33.742 10.3235 35.3869 11.7755 36.7415C11.2721 38.7734 11.1172 40.9988 11.1946 43.0114C11.3108 43.8437 11.7367 44.0759 12.4337 43.9597C15.0279 43.5532 17.5447 42.6439 19.7323 41.4828C20.2744 41.1923 20.5261 40.8634 20.681 40.457L27.0891 41.4439C28.0764 42.5083 29.0638 43.4179 30.2641 44.4241C31.0579 45.0048 31.9096 45.3337 32.9552 45.3337C37.6209 45.295 41.5509 44.5983 44.8033 43.3599C46.0809 42.9534 47.0296 41.2505 48.4428 38.8702C51.5792 37.2833 57.6388 34.3032 57.6388 28.2461Z" fill="#9BF07D"/>
</g>
<defs>
<filter id="filter0_d_304_2802" x="4" y="15.667" width="183.009" height="34.667" filterUnits="userSpaceOnUse" color-interpolation-filters="sRGB">
<feFlood flood-opacity="0" result="BackgroundImageFix"/>
<feColorMatrix in="SourceAlpha" type="matrix" values="0 0 0 0 0 0 0 0 0 0 0 0 0 0 0 0 0 0 127 0" result="hardAlpha"/>
<feOffset dy="1"/>
<feGaussianBlur stdDeviation="2"/>
<feComposite in2="hardAlpha" operator="out"/>
<feColorMatrix type="matrix" values="0 0 0 0 0 0 0 0 0 0 0 0 0 0 0 0 0 0 0.04 0"/>
<feBlend mode="normal" in2="BackgroundImageFix" result="effect1_dropShadow_304_2802"/>
<feBlend mode="normal" in="SourceGraphic" in2="effect1_dropShadow_304_2802" result="shape"/>
</filter>
</defs>
</svg>
