<svg width="192" height="64" viewBox="0 0 192 64" fill="none" xmlns="http://www.w3.org/2000/svg">
<g filter="url(#filter0_d_304_2806)">
<path fill-rule="evenodd" clip-rule="evenodd" d="M45.332 52H145.332V12H45.332V52ZM95.342 50C67.452 50 47.332 41.83 47.332 32C47.332 22.17 67.462 14 95.342 14C123.212 14 143.332 22.17 143.332 32C143.332 41.83 123.232 50 95.342 50Z" fill="#9BF07D"/>
<path d="M91.782 38C92.102 38.45 92.442 38.87 92.842 39.25H82.022C82.022 38.83 81.602 37.98 81.152 37.31C80.692 36.64 78.212 32.96 78.212 32.96V38C78.212 38.42 78.212 38.83 78.432 39.25H69.412C69.632 38.83 69.632 38.42 69.632 38V26C69.632 25.58 69.632 25.17 69.412 24.75H78.432C78.212 25.17 78.212 25.58 78.212 26V31.25C78.212 31.25 81.092 27.58 81.752 26.73C82.252 26.09 82.872 25.18 82.872 24.76H92.272C91.622 25.18 90.912 25.94 90.322 26.63C89.802 27.25 86.882 30.73 86.882 30.73C86.882 30.73 91.202 37.18 91.782 38ZM94.622 26V38C94.622 38.42 94.622 38.83 94.402 39.25H111.802V35.22C111.372 35.43 110.952 35.43 110.522 35.43H103.202V33.53H110.242V30.48H103.202V28.56H110.522C110.952 28.56 111.372 28.56 111.802 28.76V24.74H94.402C94.622 25.18 94.622 25.58 94.622 26ZM135.912 38C136.052 38.46 136.302 38.88 136.612 39.25H127.182C127.222 38.83 127.072 38.42 126.892 38C126.892 38 126.752 37.66 126.552 37.17L126.462 36.96H121.032L120.942 37.18C120.942 37.18 120.782 37.59 120.642 38.01C120.502 38.43 120.342 38.84 120.402 39.26H112.962C113.262 38.89 113.492 38.47 113.632 38.01L118.092 26.01C118.252 25.59 118.412 25.18 118.352 24.76H130.922C130.812 25.18 131.032 25.59 131.192 26.01C131.572 26.92 135.592 37.19 135.912 38ZM125.272 33.91L123.952 30.55C123.842 30.24 123.742 29.92 123.662 29.6C123.602 29.92 123.522 30.24 123.402 30.55C123.362 30.69 122.802 32.16 122.152 33.91C122.162 33.91 125.272 33.91 125.272 33.91ZM65.132 24.76H55.332C55.552 25.18 55.552 25.59 55.552 26.01V38.01C55.552 38.43 55.552 38.84 55.332 39.26H65.132C64.912 38.84 64.912 38.43 64.912 38.01V26C64.922 25.58 64.922 25.18 65.132 24.76ZM132.902 25.9C132.862 24.88 133.672 24.03 134.722 24H134.852C135.912 23.99 136.782 24.8 136.802 25.83V25.9C136.832 26.95 135.982 27.83 134.892 27.86C133.822 27.89 132.912 27.06 132.882 26C132.902 25.97 132.902 25.93 132.902 25.9ZM133.292 25.9C133.292 26.74 133.992 27.42 134.852 27.42C135.712 27.42 136.412 26.73 136.412 25.9C136.412 25.06 135.712 24.38 134.852 24.38C134.022 24.35 133.322 24.98 133.292 25.79V25.9ZM134.462 27.04H134.122V24.75H134.992C135.412 24.76 135.722 25.09 135.722 25.49C135.722 25.77 135.562 26.02 135.302 26.16L135.802 27.04H135.412L134.952 26.23H134.452C134.462 26.22 134.462 27.04 134.462 27.04ZM134.932 25.9C135.162 25.91 135.362 25.75 135.362 25.52C135.362 25.29 135.202 25.1 134.972 25.1H134.452V25.9H134.932Z" fill="#9BF07D"/>
</g>
<defs>
<filter id="filter0_d_304_2806" x="41.332" y="9" width="108" height="48" filterUnits="userSpaceOnUse" color-interpolation-filters="sRGB">
<feFlood flood-opacity="0" result="BackgroundImageFix"/>
<feColorMatrix in="SourceAlpha" type="matrix" values="0 0 0 0 0 0 0 0 0 0 0 0 0 0 0 0 0 0 127 0" result="hardAlpha"/>
<feOffset dy="1"/>
<feGaussianBlur stdDeviation="2"/>
<feComposite in2="hardAlpha" operator="out"/>
<feColorMatrix type="matrix" values="0 0 0 0 0 0 0 0 0 0 0 0 0 0 0 0 0 0 0.04 0"/>
<feBlend mode="normal" in2="BackgroundImageFix" result="effect1_dropShadow_304_2806"/>
<feBlend mode="normal" in="SourceGraphic" in2="effect1_dropShadow_304_2806" result="shape"/>
</filter>
</defs>
</svg>
