<svg width="192" height="64" viewBox="0 0 192 64" fill="none" xmlns="http://www.w3.org/2000/svg">
<g filter="url(#filter0_d_304_2814)">
<path d="M86.1211 46.4082C86.6712 46.75 87.3105 46.9205 87.9578 46.898C88.9782 46.898 89.8353 46.3674 89.8353 45.1837C89.8353 43.551 85.9986 43.347 85.9986 41.1837C85.9986 39.8368 87.2231 38.9796 88.6517 38.9796C89.0598 38.9796 89.7129 39.0612 90.2843 39.2653L90.1619 40C89.7945 39.7959 89.2231 39.7143 88.6517 39.7143C87.7945 39.7143 86.8558 40.0817 86.8558 41.1429C86.8558 42.8163 90.6517 42.8163 90.6517 45.2653C90.6517 46.9388 89.2231 47.6327 87.917 47.6327C87.1006 47.6327 86.4884 47.4694 86.0394 47.2245L86.1211 46.4082ZM96.3251 47.2653C95.7945 47.5102 95.1007 47.6327 94.57 47.6327C92.5292 47.6327 91.7945 46.2449 91.7945 44.4082C91.7945 42.5714 92.8149 41.2245 94.366 41.2245C96.0802 41.2245 96.8149 42.6123 96.8149 44.2449V44.6531H92.6109C92.6109 45.9184 93.3047 46.9796 94.6517 46.9796C95.1823 46.9796 95.9578 46.7347 96.3251 46.5306V47.2653ZM95.9578 44C95.9578 42.9388 95.5496 41.8776 94.4068 41.8776C93.3047 41.8776 92.6109 42.9796 92.6109 44H95.9578ZM102.203 42.2041C101.795 42 101.305 41.8776 100.897 41.8776C99.4272 41.8776 98.57 42.9388 98.57 44.4082C98.57 45.7959 99.3864 46.9796 100.815 46.9796C101.264 46.9796 101.713 46.8572 102.162 46.6939L102.244 47.3878C101.745 47.5599 101.22 47.6428 100.692 47.6327C98.7333 47.6327 97.7537 46.1225 97.7537 44.4082C97.7537 42.5714 98.9782 41.2245 100.774 41.2245C101.509 41.2245 101.999 41.3878 102.244 41.4694L102.203 42.2041ZM108.244 46.0408C108.244 46.4898 108.244 46.9796 108.325 47.4694H107.59V46.3674C107.305 46.9388 106.856 47.5919 105.59 47.5919C104.08 47.5919 103.55 46.6123 103.55 45.2653V41.3878H104.284V45.0612C104.284 46.2449 104.692 46.9796 105.713 46.9796C107.101 46.9796 107.509 45.7551 107.509 44.7347V41.3878H108.284V46.0408H108.244ZM110.162 42.7347L110.121 41.3878H110.856V42.5715H110.897C111.182 41.8776 111.713 41.2245 112.448 41.2245L112.978 41.3061V42.1225C112.815 42.0408 112.611 42.0408 112.448 42.0408C111.223 42.0408 110.937 43.347 110.937 44.4898V47.4694H110.162V42.7347ZM114.897 39.7551H114.162V38.7347H114.897V39.7551ZM114.162 41.3878H114.897V47.5102H114.162V41.3878ZM119.427 42.0408H118.039V45.9592C118.039 46.5306 118.244 46.9796 118.856 46.9796C119.141 46.9796 119.346 46.898 119.55 46.8163L119.59 47.4694C119.427 47.5102 119.06 47.6327 118.693 47.6327C117.346 47.6327 117.305 46.6939 117.305 45.5919V42.0408H116.08V41.3878H117.305V39.9184L118.039 39.6327V41.3878H119.427V42.0408ZM121.55 39.7551H120.774V38.7347H121.55V39.7551ZM120.774 41.3878H121.55V47.5102H120.774V41.3878ZM127.509 47.2653C126.978 47.5102 126.284 47.6327 125.754 47.6327C123.713 47.6327 122.978 46.2449 122.978 44.4082C122.978 42.5714 123.999 41.2245 125.55 41.2245C127.264 41.2245 127.999 42.6123 127.999 44.2449V44.6531H123.754C123.754 45.9184 124.448 46.9796 125.795 46.9796C126.325 46.9796 127.101 46.7347 127.468 46.5306V47.2653H127.509ZM127.141 44C127.141 42.9388 126.733 41.8776 125.59 41.8776C124.488 41.8776 123.795 42.9796 123.795 44H127.141ZM128.937 46.5714C129.386 46.8163 129.958 46.9796 130.529 46.9796C131.264 46.9796 131.876 46.5714 131.876 45.8776C131.876 44.449 128.937 44.6531 128.937 42.898C128.937 41.6735 129.917 41.2653 130.937 41.2653C131.264 41.2653 131.917 41.3061 132.448 41.5102L132.325 42.2041C131.917 42.0408 131.386 41.9184 130.978 41.9184C130.203 41.9184 129.672 42.1633 129.672 42.9388C129.672 44.0817 132.652 43.9184 132.652 45.9184C132.652 47.2245 131.427 47.6735 130.529 47.6735C129.958 47.6735 129.346 47.5919 128.815 47.3878L128.897 46.6123L128.937 46.5714Z" fill="#9BF07D"/>
<path d="M117.061 24.7344H114.367V21.4691H117.142V18.367L121.795 16.7344V21.4691H125.061V24.7344H121.795V29.7956C121.795 31.4283 122.163 32.2854 123.673 32.2854C124.036 32.2854 124.453 32.2051 124.837 32.1313C124.927 32.1139 125.016 32.0969 125.101 32.0813L125.265 35.1425C124.367 35.265 123.469 35.3874 122.326 35.3874C118.081 35.3874 117.061 33.5507 117.061 30.2854V24.7344Z" fill="#9BF07D"/>
<path d="M146.285 35.1017H141.591V18.367L146.285 16.7344V27.1834H146.326L150.244 21.4691H155.428L150.693 27.714L155.836 35.1017H150.122L146.326 28.3262H146.285V35.1017Z" fill="#9BF07D"/>
<path d="M91.1014 35.1017H86.4076V18.3262L91.1014 16.7344V27.1834H91.1831L95.1014 21.4691H100.244L95.5096 27.714L100.652 35.1017H94.9382L91.1831 28.3262H91.1014V35.1017Z" fill="#9BF07D"/>
<path fill-rule="evenodd" clip-rule="evenodd" d="M139.632 31.8772C139.632 32.9793 139.673 34.0813 139.918 35.1425V35.1834H135.51C135.51 34.8108 135.478 34.4487 135.447 34.0917C135.417 33.7449 135.387 33.4029 135.387 33.0609C134.285 34.7344 132.979 35.5099 131.02 35.5099C128.285 35.5099 125.836 34.1629 125.836 31.1834C125.836 26.9385 130.408 26.4487 132.979 26.4487C133.714 26.4487 134.571 26.5303 135.183 26.6527C135.142 24.7752 133.754 24.2446 132.04 24.2446C130.504 24.2154 128.986 24.5808 127.632 25.3058L127.55 22.0405C129.265 21.3874 131.061 21.1017 133.101 21.1017C136.571 21.1017 139.632 22.5711 139.632 26.816V31.8772ZM133.142 28.9385C131.55 28.9385 130.285 29.4691 130.285 30.7752C130.285 31.7548 131.142 32.2854 132.244 32.2854C134.04 32.2854 135.183 30.6527 135.183 29.0201L133.142 28.9385Z" fill="#9BF07D"/>
<path fill-rule="evenodd" clip-rule="evenodd" d="M114.814 28.2861C114.814 32.7759 111.385 35.3881 106.895 35.3881C102.365 35.3881 98.9362 32.7759 98.9362 28.2861C98.9362 23.7555 102.406 21.1432 106.895 21.1432C111.385 21.1432 114.814 23.7963 114.814 28.2861ZM103.793 28.2861C103.793 30.2861 104.691 32.1228 106.895 32.1228C109.059 32.1228 109.957 30.3269 109.957 28.2861C109.957 26.2453 109.059 24.4494 106.895 24.4494C104.691 24.4494 103.793 26.2453 103.793 28.2861Z" fill="#9BF07D"/>
<path fill-rule="evenodd" clip-rule="evenodd" d="M59.1823 12C46.4555 12 36.1339 20.8869 36.1211 31.8571C36.1211 31.8503 36.1211 31.8435 36.1211 31.8367V31.8776C36.1211 31.8707 36.1211 31.8639 36.1211 31.8571C36.1339 42.7866 46.4555 51.6735 59.1823 51.6735C71.9578 51.6735 82.2844 42.7755 82.2844 31.8367C82.2844 20.8571 71.9578 12 59.1823 12ZM56.4076 18.4478L61.7137 16.6927V24.1105C63.3231 22.602 65.2703 21.5512 67.8763 21.5512C72.8558 21.5512 75.6314 25.5921 76.4477 29.7145H74.162C73.6723 29.0349 73.0287 28.4809 72.2838 28.0978C71.5389 27.7147 70.7139 27.5135 69.8763 27.5104C66.1922 27.5104 63.9153 30.6856 62.0617 33.2703C61.9441 33.4344 61.8282 33.596 61.7137 33.7544V45.6723L56.4076 47.4682V39.9836C54.9058 41.2889 53.1539 42.2043 50.7742 42.2043C44.815 42.2043 41.9987 36.4492 41.9987 31.5921C41.9987 26.9798 44.2028 21.5104 49.9987 21.5104C52.5293 21.5104 54.9375 23.0614 56.4069 24.6941V28.6125C55.1824 27.7961 52.4885 26.9798 50.6926 26.9798C47.0191 26.8982 43.7538 28.5308 43.8354 32.1635C43.8762 34.6125 46.366 36.3267 48.815 36.3267C52.346 36.3267 54.5702 33.3601 56.4076 30.8434V18.4478ZM76.5293 33.9186C76.0395 38.0818 73.713 42.2451 68.6518 42.2451C65.6722 42.2451 63.3456 40.2043 61.7538 37.7553V34.8982C62.0073 35.0199 62.2577 35.1428 62.5062 35.2649C64.2579 36.125 65.9154 36.939 67.9171 36.939C70.7334 37.0206 73.2232 35.9594 74.2844 33.9186H76.5293Z" fill="#9BF07D"/>
</g>
<defs>
<filter id="filter0_d_304_2814" x="32.1211" y="9" width="127.715" height="47.6738" filterUnits="userSpaceOnUse" color-interpolation-filters="sRGB">
<feFlood flood-opacity="0" result="BackgroundImageFix"/>
<feColorMatrix in="SourceAlpha" type="matrix" values="0 0 0 0 0 0 0 0 0 0 0 0 0 0 0 0 0 0 127 0" result="hardAlpha"/>
<feOffset dy="1"/>
<feGaussianBlur stdDeviation="2"/>
<feComposite in2="hardAlpha" operator="out"/>
<feColorMatrix type="matrix" values="0 0 0 0 0 0 0 0 0 0 0 0 0 0 0 0 0 0 0.04 0"/>
<feBlend mode="normal" in2="BackgroundImageFix" result="effect1_dropShadow_304_2814"/>
<feBlend mode="normal" in="SourceGraphic" in2="effect1_dropShadow_304_2814" result="shape"/>
</filter>
</defs>
</svg>
