<svg width="192" height="64" viewBox="0 0 192 64" fill="none" xmlns="http://www.w3.org/2000/svg">
<g filter="url(#filter0_d_304_2800)">
<path d="M71.6236 20.0962C69.9249 20.0962 68.2474 20.4713 66.7118 21.1946C65.1763 21.9179 63.8208 22.9714 62.7432 24.2791C61.6656 25.5868 60.8926 27.1162 60.4798 28.7573C60.0671 30.3983 60.0249 32.11 60.3563 33.7692C60.7995 35.9886 61.8938 38.0272 63.5003 39.6272C65.1069 41.2273 67.1539 42.3169 69.3824 42.7583C71.6109 43.1998 73.9208 42.9733 76.0199 42.1073C78.1191 41.2414 79.9133 39.7749 81.1755 37.8935C82.4379 36.012 83.1117 33.8 83.1117 31.5372C83.1083 28.5039 81.8968 25.5958 79.7431 23.4509C77.5894 21.306 74.6694 20.0995 71.6236 20.0962V20.0962V20.0962ZM71.6236 40.1269C69.9177 40.1269 68.2502 39.6231 66.8318 38.6793C65.4134 37.7354 64.3079 36.3939 63.6551 34.8243C63.0023 33.2548 62.8315 31.5277 63.1643 29.8614C63.4971 28.1952 64.3186 26.6646 65.5248 25.4633C66.731 24.2621 68.2678 23.444 69.9409 23.1124C71.1918 22.8646 72.4822 22.8962 73.7193 23.2048C74.9565 23.5134 76.1095 24.0914 77.0953 24.8972C78.0812 25.7029 78.8753 26.7164 79.4206 27.8646C79.9659 29.0127 80.2487 30.2671 80.2487 31.5372C80.2463 33.8146 79.3368 35.9981 77.7199 37.6085C76.1029 39.2187 73.9104 40.1245 71.6236 40.1269V40.1269ZM97.1396 20.0962C94.8675 20.0962 92.6464 20.7672 90.7572 22.0244C88.8681 23.2815 87.3955 25.0683 86.5261 27.1588C85.6565 29.2494 85.4291 31.5499 85.8723 33.7692C86.3155 35.9886 87.4095 38.0273 89.0162 39.6274C90.6228 41.2274 92.6699 42.317 94.8984 42.7583C97.1269 43.1998 99.4368 42.9733 101.536 42.1073C103.635 41.2414 105.429 39.7749 106.692 37.8935C107.954 36.012 108.628 33.8 108.628 31.5372C108.624 28.5039 107.413 25.5958 105.259 23.4509C103.105 21.306 100.185 20.0995 97.1396 20.0962V20.0962V20.0962ZM97.1396 40.1269C95.4338 40.1269 93.7662 39.6232 92.3478 38.6793C90.9294 37.7355 89.8239 36.3939 89.1711 34.8244C88.5183 33.2547 88.3475 31.5277 88.6803 29.8614C89.0131 28.1952 89.8346 26.6646 91.0408 25.4633C92.247 24.2621 93.7839 23.444 95.457 23.1124C97.1301 22.781 98.8643 22.9511 100.44 23.6013C102.016 24.2514 103.363 25.3524 104.311 26.765C105.259 28.1776 105.765 29.8383 105.765 31.5372C105.762 33.8145 104.852 35.9977 103.236 37.6081C101.619 39.2184 99.4263 40.1242 97.1396 40.1269V40.1269V40.1269ZM137.155 34.5141L136.135 34.0333C135.463 33.7359 134.789 33.441 134.094 33.1821C134.003 33.1474 133.912 33.1167 133.821 33.0821C133.841 32.891 133.858 32.6974 133.872 32.5077C133.903 32.1231 133.906 31.7385 133.911 31.3436C133.906 30.9328 133.876 30.5226 133.822 30.1154C133.605 28.5251 133.069 26.9946 132.245 25.6154C131.425 24.2258 130.319 23.0254 128.998 22.0936C127.668 21.1686 126.146 20.551 124.545 20.2859C122.98 20.0268 121.379 20.0629 119.826 20.3923C118.245 20.7253 116.768 21.4363 115.524 22.4641C115.328 22.6244 115.138 22.7936 114.963 22.9679V20.7385H112.109V51.9295H114.959V26.2308C115.143 25.9859 115.336 25.75 115.539 25.5269C115.963 25.0636 116.433 24.6442 116.941 24.2756C117.947 23.5563 119.104 23.0741 120.324 22.8654C121.567 22.6527 122.838 22.6588 124.078 22.8833C125.29 23.0938 126.439 23.5717 127.441 24.2821C129.418 25.6923 130.765 28.0538 131.064 30.4628C131.101 30.7572 131.119 31.0534 131.12 31.35C131.112 31.6333 131.106 31.9218 131.084 32.2051C130.656 32.0923 130.226 31.9872 129.789 31.8974C128.298 31.5974 126.738 31.4295 125.114 31.5872C124.278 31.6653 123.455 31.8541 122.669 32.1487C121.822 32.4654 121.047 32.9446 120.386 33.559C119.688 34.2146 119.168 35.0347 118.872 35.9436C118.575 36.8678 118.531 37.8542 118.744 38.8013C118.961 39.7526 119.435 40.6271 120.113 41.3308C120.786 42.0218 121.63 42.5245 122.559 42.7885C124.361 43.2872 126.177 43.0064 127.715 42.3051C129.235 41.605 130.55 40.529 131.534 39.1795C132.26 38.189 132.825 37.0909 133.208 35.9256C133.794 36.1474 134.375 36.391 134.955 36.641L135.866 37.0577L136.403 37.3244L138.038 34.9756L137.155 34.5141V34.5141ZM129.236 37.4782C128.533 38.4245 127.604 39.1817 126.533 39.682C125.503 40.1603 124.329 40.2833 123.38 40.0128C122.941 39.896 122.542 39.662 122.227 39.336C121.912 39.0099 121.692 38.6043 121.591 38.1628C121.496 37.7134 121.52 37.2469 121.663 36.81C121.805 36.373 122.06 35.981 122.402 35.6731C123.11 35 124.216 34.609 125.417 34.4846C126.618 34.3603 127.925 34.4846 129.213 34.741C129.651 34.8282 130.087 34.9372 130.523 35.0538C130.223 35.9236 129.789 36.7415 129.236 37.4782V37.4782ZM56.1641 37.7449V12H53.332V38.6667C53.332 40.8462 54.8331 42.4244 56.3405 43.1808L58.2406 40.9744C57.0331 40.3051 56.1641 39.541 56.1641 37.7449Z" fill="#9BF07D"/>
</g>
<defs>
<filter id="filter0_d_304_2800" x="49.332" y="9" width="92.7061" height="47.9297" filterUnits="userSpaceOnUse" color-interpolation-filters="sRGB">
<feFlood flood-opacity="0" result="BackgroundImageFix"/>
<feColorMatrix in="SourceAlpha" type="matrix" values="0 0 0 0 0 0 0 0 0 0 0 0 0 0 0 0 0 0 127 0" result="hardAlpha"/>
<feOffset dy="1"/>
<feGaussianBlur stdDeviation="2"/>
<feComposite in2="hardAlpha" operator="out"/>
<feColorMatrix type="matrix" values="0 0 0 0 0 0 0 0 0 0 0 0 0 0 0 0 0 0 0.04 0"/>
<feBlend mode="normal" in2="BackgroundImageFix" result="effect1_dropShadow_304_2800"/>
<feBlend mode="normal" in="SourceGraphic" in2="effect1_dropShadow_304_2800" result="shape"/>
</filter>
</defs>
</svg>
