<svg width="192" height="64" viewBox="0 0 192 64" fill="none" xmlns="http://www.w3.org/2000/svg">
<g filter="url(#filter0_d_304_2818)">
<path d="M10.337 31.9869C10.337 31.4652 10.3247 30.9429 10.3391 30.4216C10.4914 24.8029 14.0244 19.7992 19.2593 17.7746C21.1887 17.0282 23.1913 16.7416 25.2556 16.8822C26.6385 16.9766 27.9759 17.2846 29.2677 17.7836C29.6575 17.9342 30.0685 18.0332 30.4692 18.1576C34.3705 19.3659 37.2044 21.7872 39.0171 25.3442C40.2108 27.6866 40.6902 30.1879 40.4346 32.7799C39.9483 37.7112 37.5244 41.4792 33.105 43.9912C32.9582 44.0746 32.8172 44.1706 32.683 44.2726C30.7851 45.7162 28.6538 46.6623 26.2679 46.9809C21.8447 47.5713 17.9873 46.3482 14.7554 43.3569C12.4519 41.2246 11.0803 38.5872 10.5369 35.5386C10.3586 34.5382 10.3086 33.5322 10.3415 32.5196C10.3473 32.3422 10.3422 32.1646 10.3422 31.9869C10.3405 31.9869 10.3387 31.9869 10.337 31.9869ZM17.2327 41.9656C17.2214 41.9826 17.2101 41.9999 17.1988 42.0169C17.2087 42.0206 17.219 42.0246 17.2289 42.0282C17.2293 42.0076 17.2299 41.9872 17.2303 41.9666C17.2067 41.9426 17.1831 41.9189 17.1594 41.8949C17.0007 41.7566 16.8292 41.6296 16.6851 41.4782C13.4026 38.0276 12.1645 33.9532 12.8366 29.3219C13.1124 27.4212 13.8184 25.6582 14.8611 24.0262C14.8933 23.9759 14.9145 23.9186 14.9412 23.8646C14.922 23.8506 14.9029 23.8366 14.8834 23.8229C14.8098 23.8982 14.7345 23.9722 14.663 24.0496C12.9023 25.9532 11.7973 28.1719 11.3233 30.6879C11.2186 31.2429 11.1009 31.8032 11.1837 32.3746C11.2381 32.7479 11.2898 33.1226 11.3668 33.4922C12.0844 36.9402 13.8937 39.7109 16.8094 41.7922C16.8918 41.8512 16.9784 41.9066 17.0688 41.9522C17.0855 41.9609 17.131 41.9156 17.1622 41.8956C17.1468 41.9116 17.131 41.9279 17.1156 41.9439C17.155 41.9502 17.195 41.9572 17.2327 41.9656ZM14.9405 23.7036C14.9689 23.7036 14.9973 23.7039 15.0261 23.7039C14.9994 23.7032 14.9727 23.7029 14.9491 23.7029C14.9535 23.7346 14.9576 23.7662 14.9621 23.7979C14.9764 23.7862 14.9905 23.7746 15.0049 23.7629C14.9833 23.7432 14.9621 23.7236 14.9405 23.7036ZM33.5817 20.5042C33.6077 20.4939 33.6337 20.4836 33.6597 20.4732C33.6327 20.4856 33.606 20.4979 33.579 20.5102C33.5728 20.4816 33.5666 20.4529 33.5759 20.4959C33.5574 20.4536 33.5687 20.4799 33.5817 20.5042ZM35.8722 40.9309C36.0686 40.7349 36.2825 40.5526 36.4591 40.3409C39.3994 36.8176 40.3542 32.8219 39.3166 28.4119C38.5647 25.2179 36.7691 22.6532 34.0495 20.7119C33.9561 20.6452 33.8579 20.5842 33.7621 20.5209C33.749 20.5392 33.736 20.5576 33.7234 20.5759C33.7918 20.6476 33.8586 20.7206 33.9287 20.7909C36.8803 23.7472 38.2656 27.2946 38.1547 31.4079C38.1438 31.8182 38.1421 32.2296 38.1568 32.6396C38.1999 33.8552 38.0897 35.0562 37.8207 36.2439C37.4594 37.8399 36.8351 39.3312 35.9488 40.7192C35.9084 40.7822 35.9009 40.8652 35.878 40.9389C35.8561 40.9429 35.8342 40.9466 35.8123 40.9506C35.8157 40.9602 35.8188 40.9699 35.8222 40.9799C35.839 40.9636 35.8554 40.9472 35.8722 40.9309ZM13.4156 31.5736C13.4088 32.9086 13.6165 34.3712 14.0514 35.6729C15.2684 39.3166 17.6143 42.0189 21.1678 43.7002C21.3098 43.7672 21.4635 43.8199 21.6178 43.8512C23.1161 44.1566 24.6252 44.2119 26.1382 43.9826C29.0282 43.5446 31.4911 42.2869 33.5252 40.2476C35.4434 38.3249 36.6343 36.0252 37.1551 33.3976C37.2629 32.8546 37.3752 32.3059 37.3204 31.7456C37.1175 29.6786 36.4745 27.7469 35.3297 25.9972C32.9421 22.3472 29.548 20.2512 25.0944 19.8902C23.1469 19.7326 21.2575 20.0586 19.4424 20.7746C18.7942 21.0302 18.171 21.3192 17.6882 21.8339C17.5266 22.0059 17.347 22.1616 17.1841 22.3322C14.6948 24.9362 13.481 28.0332 13.4156 31.5736ZM11.8192 37.1966C11.7979 37.2066 11.7767 37.2166 11.7555 37.2266C11.7802 37.3089 11.8021 37.3919 11.8301 37.4732C12.6039 39.7086 13.892 41.6142 15.6968 43.1869C19.2473 46.2816 24.2758 47.2142 28.6897 45.5986C28.7643 45.5712 28.8338 45.5302 28.9057 45.4959C28.6822 45.4679 28.481 45.4992 28.2787 45.5232C28.0638 45.5486 27.8486 45.5736 27.633 45.5879C25.4739 45.7286 23.3854 45.4349 21.382 44.6199C21.2458 44.5646 21.1062 44.5136 20.9639 44.4772C17.04 43.4699 14.1336 41.1916 12.1378 37.7759C12.0265 37.5852 11.9249 37.3896 11.8192 37.1966ZM36.7581 26.8462C36.7469 26.7879 36.7414 26.7276 36.7229 26.6712C36.4539 25.8442 36.1045 25.0502 35.6696 24.2932C34.2949 21.8996 32.3631 20.0709 29.8303 18.8596C29.5785 18.7392 29.303 18.6419 29.0275 18.5972C28.4444 18.5022 27.8561 18.4226 27.2664 18.3836C25.4548 18.2629 23.703 18.5489 22.0083 19.1779C21.9183 19.2112 21.8327 19.2559 21.7451 19.2956C24.8312 18.8099 27.7733 19.2029 30.5425 20.6202C33.3028 22.0329 35.3332 24.1506 36.7581 26.8462ZM11.7624 26.9026C11.8188 26.7949 11.8746 26.6869 11.9321 26.5796C13.2609 24.0906 15.1599 22.1362 17.6786 20.7626C17.8073 20.6922 17.9346 20.6156 18.0499 20.5266C20.033 18.9986 22.2677 18.0446 24.7799 17.7199C24.8651 17.7089 24.9473 17.6762 25.0308 17.6536C17.9448 17.2549 13.0221 22.2302 11.7624 26.9026ZM36.7078 37.2869C34.3038 41.5559 30.6941 44.1359 25.7142 44.8342C27.7599 44.9676 29.7205 44.6512 31.5945 43.8626C31.9473 43.7142 32.3244 43.5689 32.6115 43.3319C34.5071 41.7676 35.8369 39.8206 36.6462 37.5346C36.6747 37.4542 36.6877 37.3696 36.7078 37.2869ZM36.7879 26.9546C36.7855 26.9629 36.7831 26.9712 36.7811 26.9796C36.791 26.9822 36.8013 26.9846 36.8112 26.9872C36.8102 26.9779 36.8115 26.9676 36.8078 26.9592C36.8061 26.9559 36.7948 26.9562 36.7879 26.9546Z" fill="#9BF07D"/>
<path d="M92.2721 43.6394C91.5251 43.6394 90.8105 43.6394 90.0593 43.6394C90.0593 43.5197 90.0593 43.4 90.0593 43.2804C90.0593 40.7137 90.0641 38.147 90.0569 35.5804C90.0542 34.6457 89.9902 33.7144 89.6771 32.82C89.571 32.5167 89.4485 32.2154 89.301 31.9294C88.8705 31.095 88.1796 30.576 87.2415 30.3724C86.5184 30.2154 85.7916 30.2047 85.0712 30.3654C84.011 30.6017 83.2369 31.2227 82.6866 32.1217C82.1918 32.93 81.968 33.8217 81.8759 34.746C81.8297 35.2094 81.8164 35.677 81.815 36.143C81.8092 38.5097 81.8123 40.8764 81.8123 43.243C81.8123 43.3647 81.8123 43.4867 81.8123 43.632C81.0765 43.632 80.3551 43.632 79.5971 43.632C79.5971 43.5104 79.5971 43.3917 79.5971 43.273C79.5971 40.462 79.6009 37.6507 79.5947 34.8397C79.593 34.0834 79.5297 33.3297 79.3305 32.5954C79.0441 31.54 78.4408 30.74 77.321 30.433C75.5651 29.9517 73.916 30.416 72.774 31.8567C72.1922 32.5907 71.8322 33.431 71.6813 34.341C71.5855 34.9194 71.5338 35.5104 71.5297 36.0964C71.5133 38.485 71.5229 40.874 71.5229 43.263C71.5229 43.3824 71.5229 43.502 71.5229 43.6384C70.7768 43.6384 70.062 43.6384 69.3012 43.6384C69.2985 43.5164 69.2926 43.3884 69.2926 43.2604C69.2923 39.6604 69.3002 36.0604 69.2875 32.4604C69.2834 31.3167 69.2239 30.1734 69.19 29.03C69.1883 28.9754 69.1896 28.9204 69.1896 28.8407C69.8802 28.8407 70.5677 28.8407 71.2819 28.8407C71.4014 29.6467 71.3949 30.4644 71.4811 31.293C71.528 31.224 71.5773 31.156 71.6218 31.0857C72.7032 29.383 74.2828 28.5167 76.3262 28.4607C76.7899 28.448 77.2659 28.4767 77.7197 28.5664C79.2511 28.8694 80.2874 29.7924 80.966 31.1317C81.0262 31.251 81.0782 31.3744 81.1511 31.532C81.2161 31.4347 81.2719 31.3597 81.3188 31.2804C82.4207 29.411 84.0942 28.4967 86.2905 28.4537C86.9767 28.4404 87.6549 28.4857 88.3257 28.6474C89.7377 28.9877 90.7708 29.7907 91.459 31.0304C91.871 31.7727 92.1082 32.5687 92.1989 33.403C92.2492 33.8657 92.269 34.3337 92.2701 34.7994C92.2762 37.6214 92.2731 40.4437 92.2731 43.2657C92.2721 43.385 92.2721 43.5044 92.2721 43.6394Z" fill="#9BF07D"/>
<path d="M129.699 35.9372C129.67 38.3252 129.008 40.1802 127.507 41.7102C126.42 42.8189 125.081 43.5062 123.548 43.8162C121.684 44.1932 119.847 44.0976 118.089 43.3386C115.61 42.2682 114.141 40.3929 113.627 37.8212C113.287 36.1246 113.442 34.4532 114.189 32.8702C115.304 30.5096 117.216 29.1009 119.813 28.6102C121.764 28.2416 123.675 28.4206 125.473 29.3092C127.66 30.3899 128.966 32.1399 129.495 34.4479C129.629 35.0289 129.659 35.6329 129.699 35.9372ZM127.377 36.2126C127.308 35.7076 127.276 35.1949 127.164 34.6996C126.84 33.2722 126.115 32.0812 124.868 31.2296C123.823 30.5159 122.652 30.2226 121.382 30.2599C119.484 30.3159 117.943 31.0692 116.912 32.6186C115.535 34.6882 115.464 36.8952 116.485 39.1282C117.051 40.3656 118.013 41.2439 119.299 41.7656C120.246 42.1492 121.236 42.2416 122.251 42.1402C123.869 41.9789 125.186 41.2886 126.147 40.0046C126.989 38.8809 127.338 37.5992 127.377 36.2126Z" fill="#9BF07D"/>
<path d="M158.44 36.1216C158.411 38.3363 157.746 40.1906 156.243 41.7183C155.154 42.8253 153.813 43.512 152.28 43.8186C150.355 44.2036 148.464 44.0896 146.666 43.267C144.287 42.1793 142.876 40.3343 142.374 37.8433C142.03 36.1356 142.183 34.453 142.937 32.86C144.055 30.5013 145.972 29.1013 148.568 28.6073C150.314 28.2746 152.046 28.3916 153.701 29.0773C156.182 30.1053 157.664 31.9466 158.253 34.4906C158.31 34.739 158.351 34.9926 158.378 35.246C158.413 35.5766 158.426 35.91 158.44 36.1216ZM156.121 36.2346C156.053 35.7296 156.022 35.217 155.911 34.7213C155.593 33.293 154.873 32.0996 153.629 31.243C152.577 30.5176 151.396 30.221 150.114 30.2603C148.23 30.318 146.707 31.073 145.665 32.599C144.407 34.4413 144.25 36.4543 144.97 38.5266C145.492 40.0303 146.505 41.1306 148.022 41.756C148.979 42.1503 149.98 42.241 151.006 42.1396C152.427 41.9993 153.636 41.438 154.578 40.386C155.639 39.202 156.066 37.79 156.121 36.2346Z" fill="#9BF07D"/>
<path d="M53.782 28.8484C54.5346 28.8484 55.2491 28.8484 55.9907 28.8484C55.9907 28.9857 55.9907 29.1057 55.9907 29.2254C55.9927 31.969 55.9856 34.7127 56.0016 37.4564C56.0068 38.3467 56.1183 39.229 56.4681 40.065C56.9663 41.257 57.8766 41.941 59.1774 42.1397C60.0976 42.2804 60.9963 42.2247 61.8535 41.8417C62.9445 41.354 63.6639 40.5234 64.1368 39.4697C64.5598 38.5274 64.7069 37.5354 64.7059 36.515C64.7039 34.0934 64.7052 31.672 64.7052 29.2504C64.7052 29.1287 64.7052 29.007 64.7052 28.8894C64.9588 28.8154 66.5847 28.8047 66.9235 28.8727C66.9892 33.7864 66.8424 38.7037 67.0241 43.637C66.3571 43.637 65.6771 43.637 64.9492 43.637C64.8404 42.8304 64.8257 42.0057 64.8127 41.163C64.7702 41.1807 64.7295 41.1847 64.7186 41.2044C63.9859 42.5394 62.8025 43.3304 61.357 43.7517C59.7862 44.2094 58.2226 44.1237 56.7176 43.467C55.6372 42.9957 54.9213 42.161 54.425 41.1367C53.9494 40.1547 53.7738 39.107 53.7714 38.0314C53.7646 35.0544 53.769 32.0774 53.7697 29.1004C53.7697 29.0247 53.7769 28.949 53.782 28.8484Z" fill="#9BF07D"/>
<path d="M99.0609 28.8431C99.771 28.8431 100.452 28.8431 101.158 28.8431C101.269 29.6627 101.272 30.4804 101.31 31.3191C101.35 31.2924 101.382 31.2821 101.394 31.2607C102.191 29.8461 103.463 29.0317 105.021 28.6417C106.496 28.2727 107.964 28.3724 109.366 28.9887C110.601 29.5321 111.358 30.5084 111.843 31.7054C112.177 32.5297 112.328 33.3927 112.329 34.2767C112.336 37.3201 112.334 40.3637 112.335 43.4074C112.335 43.4817 112.326 43.5561 112.32 43.6424C111.586 43.6424 110.872 43.6424 110.121 43.6424C110.121 43.5131 110.121 43.3944 110.121 43.2757C110.121 40.6211 110.126 37.9661 110.118 35.3114C110.116 34.4661 110.042 33.6244 109.789 32.8097C109.425 31.6401 108.704 30.7764 107.463 30.4434C105.282 29.8584 103.232 30.6071 102.146 32.6341C101.567 33.7154 101.39 34.8827 101.387 36.0827C101.381 38.4707 101.385 40.8591 101.385 43.2474C101.385 43.3691 101.385 43.4907 101.385 43.6344C100.657 43.6344 99.9445 43.6344 99.1851 43.6344C99.182 43.5191 99.1755 43.3914 99.1755 43.2641C99.1749 39.5984 99.1834 35.9331 99.1697 32.2674C99.166 31.2244 99.0985 30.1817 99.0612 29.1391C99.0582 29.0514 99.0609 28.9634 99.0609 28.8431Z" fill="#9BF07D"/>
<path d="M169.314 28.757C169.962 28.757 170.588 28.757 171.241 28.757C173.415 33.6873 175.594 38.628 177.788 43.6036C177.673 43.6113 177.589 43.6213 177.504 43.6213C176.911 43.6226 176.318 43.6083 175.725 43.629C175.484 43.6373 175.39 43.547 175.306 43.3446C174.881 42.3183 174.441 41.298 174.006 40.276C173.963 40.1746 173.914 40.0756 173.866 39.9713C171.424 39.9713 168.998 39.9713 166.551 39.9713C166.286 40.6006 166.024 41.2233 165.761 41.8463C165.537 42.3786 165.309 42.9096 165.092 43.445C165.044 43.5656 164.987 43.625 164.848 43.624C164.164 43.6183 163.48 43.6193 162.796 43.6163C162.777 43.6163 162.759 43.5963 162.717 43.572C164.915 38.6357 167.114 33.696 169.314 28.757ZM173.102 38.1583C172.767 37.333 172.455 36.5637 172.143 35.795C171.825 35.0137 171.514 34.2297 171.184 33.453C170.864 32.6967 170.593 31.919 170.214 31.145C169.821 31.8833 167.377 37.913 167.369 38.1587C169.257 38.1583 171.145 38.1583 173.102 38.1583Z" fill="#9BF07D"/>
<path d="M137.183 43.6464C136.36 43.6464 135.564 43.6464 134.73 43.6464C132.672 38.7357 130.61 33.8134 128.536 28.8644C129.37 28.8644 130.174 28.8644 131.018 28.8644C132.654 33.0144 134.297 37.182 135.94 41.3494C135.961 41.3504 135.983 41.3517 136.005 41.3527C137.656 37.1904 139.308 33.0277 140.962 28.8584C141.748 28.8584 142.521 28.8584 143.346 28.8584C141.286 33.8007 139.234 38.7237 137.183 43.6464Z" fill="#9BF07D"/>
<path d="M49.3028 19.7418C50.0294 19.7418 50.734 19.7418 51.4382 19.7418C51.5101 19.9895 51.5454 42.7275 51.4738 43.6352C50.7631 43.6352 50.0502 43.6352 49.3343 43.6352C49.2635 43.3992 49.2286 20.6155 49.3028 19.7418Z" fill="#9BF07D"/>
<path d="M96.7618 43.6495C96.0161 43.6495 95.3098 43.6495 94.6059 43.6495C94.533 43.4195 94.5056 29.3985 94.5768 28.8605C95.3002 28.8605 96.0254 28.8605 96.7618 28.8605C96.7618 33.7898 96.7618 38.7048 96.7618 43.6495Z" fill="#9BF07D"/>
<path d="M179.405 28.7635C180.094 28.7635 180.773 28.7635 181.469 28.7635C181.469 33.7142 181.469 38.6515 181.469 43.6062C180.774 43.6062 180.097 43.6062 179.405 43.6062C179.405 38.6522 179.405 33.7128 179.405 28.7635Z" fill="#9BF07D"/>
<path d="M94.1056 23.1535C94.109 22.3075 94.7972 21.6502 95.6746 21.6545C96.5466 21.6592 97.2249 22.3285 97.2194 23.1795C97.2139 24.0265 96.5278 24.6812 95.6479 24.6785C94.7784 24.6755 94.1021 24.0068 94.1056 23.1535Z" fill="#9BF07D"/>
<path d="M159.999 43.7159C159.31 43.7085 158.757 43.1745 158.757 42.5192C158.759 41.8269 159.333 41.2915 160.057 41.3089C160.762 41.3259 161.305 41.8442 161.297 42.5052C161.289 43.1932 160.698 43.7622 159.999 43.7159Z" fill="#9BF07D"/>
<path d="M36.7893 26.9551C36.7968 26.9569 36.8089 26.9565 36.8108 26.9606C36.815 26.9698 36.8139 26.9809 36.8146 26.9916C36.8036 26.9886 36.7923 26.9861 36.7813 26.9831C36.7843 26.9735 36.787 26.9643 36.7893 26.9551Z" fill="#9BF07D"/>
<path d="M33.5794 20.5055C33.5681 20.4792 33.5577 20.4536 33.5759 20.4959C33.5666 20.4529 33.5728 20.4816 33.579 20.5102L33.5794 20.5055Z" fill="#9BF07D"/>
<path d="M14.9472 23.7028C14.9739 23.7035 14.9997 23.7032 15.0261 23.7039C14.9973 23.7039 14.9689 23.7036 14.9405 23.7036L14.9472 23.7028Z" fill="#9BF07D"/>
<path d="M14.9405 23.7036C14.9621 23.7236 14.9833 23.7432 15.0049 23.7629C14.9905 23.7746 14.9764 23.7862 14.9621 23.7979C14.9576 23.7662 14.953 23.7348 14.9472 23.7028C14.9458 23.7025 14.9405 23.7036 14.9405 23.7036Z" fill="#9BF07D"/>
<path d="M33.5806 20.5099C33.6076 20.4976 33.6343 20.4853 33.6613 20.4729C33.6353 20.4833 33.6084 20.4932 33.5817 20.5042C33.5807 20.5052 33.5806 20.5099 33.5806 20.5099Z" fill="#9BF07D"/>
<path d="M35.8705 40.9318C35.8537 40.9482 35.837 40.9645 35.8205 40.9808C35.8171 40.9712 35.814 40.9615 35.8106 40.9515C35.8325 40.9475 35.8544 40.9438 35.8763 40.9398C35.8763 40.9402 35.8705 40.9318 35.8705 40.9318Z" fill="#9BF07D"/>
<path d="M17.1574 41.8959C17.1811 41.9199 17.2047 41.9435 17.2283 41.9675L17.2327 41.9656C17.193 41.9586 17.153 41.9515 17.1133 41.9445C17.1287 41.9285 17.1444 41.9122 17.1605 41.8959C17.1612 41.8952 17.1574 41.8959 17.1574 41.8959Z" fill="#9BF07D"/>
<path d="M17.2303 41.9666C17.2299 41.9872 17.2293 42.0076 17.2289 42.0282C17.219 42.0246 17.2087 42.0206 17.1988 42.0169C17.2101 41.9999 17.2214 41.9826 17.2327 41.9656C17.2337 41.9652 17.2303 41.9666 17.2303 41.9666Z" fill="#9BF07D"/>
</g>
<defs>
<filter id="filter0_d_304_2818" x="6.33203" y="13.8477" width="179.137" height="38.2773" filterUnits="userSpaceOnUse" color-interpolation-filters="sRGB">
<feFlood flood-opacity="0" result="BackgroundImageFix"/>
<feColorMatrix in="SourceAlpha" type="matrix" values="0 0 0 0 0 0 0 0 0 0 0 0 0 0 0 0 0 0 127 0" result="hardAlpha"/>
<feOffset dy="1"/>
<feGaussianBlur stdDeviation="2"/>
<feComposite in2="hardAlpha" operator="out"/>
<feColorMatrix type="matrix" values="0 0 0 0 0 0 0 0 0 0 0 0 0 0 0 0 0 0 0.04 0"/>
<feBlend mode="normal" in2="BackgroundImageFix" result="effect1_dropShadow_304_2818"/>
<feBlend mode="normal" in="SourceGraphic" in2="effect1_dropShadow_304_2818" result="shape"/>
</filter>
</defs>
</svg>
