<svg width="1952" height="512" viewBox="0 0 1952 512" fill="none" xmlns="http://www.w3.org/2000/svg">
<path d="M0 256C0 393.448 108.14 505.485 244.037 511.726V437.446C149.198 431.31 74.2464 352.733 74.0747 256.325C91.9078 255.094 108.717 255.291 124.414 256.833L124.411 256V167.477C124.411 114.678 184.363 74.1682 256 74.1682C327.637 74.1682 387.589 114.678 387.589 167.477V256L387.586 256.833C403.283 255.291 420.092 255.095 437.925 256.325C437.754 352.733 362.802 431.31 267.963 437.446V511.726C403.86 505.485 512 393.448 512 256C512 114.542 397.458 0 256 0C114.542 0 0 114.542 0 256ZM99.6911 279.438C110.284 353.097 168.801 408.184 244.037 413.487V400.748C244.037 396.04 243.848 391.457 243.47 387.001C184.952 381.484 137.638 337.715 126.766 280.934C118.182 280 109.154 279.498 99.6909 279.438H99.6911ZM148.336 256C148.336 257.477 148.364 258.945 148.417 260.404C200.869 271.057 238.132 298.753 256 339.592C273.868 298.753 311.132 271.057 363.583 260.404C363.636 258.945 363.664 257.477 363.664 256V221.405C339.671 245.472 300.044 260.785 256 260.785C211.956 260.785 172.329 245.472 148.336 221.405V256ZM148.336 167.477C148.336 206.013 193.596 236.86 256 236.86C318.405 236.86 363.664 206.013 363.664 167.477C363.664 128.94 318.405 98.0935 256 98.0935C212.645 98.0935 183.028 117.683 183.028 142.355C183.028 146.344 183.802 150.2 185.283 153.862C194.556 136.379 221.647 124.411 256 124.411C298.692 124.411 330.168 142.893 330.168 167.477C330.168 192.06 298.692 210.542 256 210.542C248.79 210.542 241.899 210.015 235.426 209.02C192.423 202.563 159.103 176.205 159.103 142.355C159.103 140.157 159.243 137.991 159.518 135.86C152.307 145.323 148.336 156.063 148.336 167.477ZM152.073 285.232C162.889 326.153 196.205 356.186 239.143 362.453C228.064 322.711 198.371 296.25 152.073 285.232ZM205.757 167.477C205.757 173.481 212.594 179.232 225.002 182.834C234.198 185.269 244.626 186.617 256 186.617C287.596 186.617 306.243 177.393 306.243 167.477C306.243 157.56 287.596 148.336 256 148.336C224.404 148.336 205.757 157.56 205.757 167.477ZM267.963 413.487C343.199 408.184 401.716 353.096 412.309 279.438C402.846 279.498 393.818 280 385.234 280.934C374.362 337.715 327.048 381.484 268.53 387.001C268.152 391.457 267.963 396.04 267.963 400.748L267.963 413.487ZM272.857 362.453C315.795 356.186 349.111 326.153 359.927 285.232C313.629 296.25 283.936 322.711 272.857 362.453Z" fill="#14100D"/>
<path d="M1014.19 395C1082.71 395 1095.63 323.394 1095.63 256C1095.63 188.606 1082.71 117 1014.19 117C945.675 117 932.758 188.606 932.758 256C932.758 323.394 945.675 395 1014.19 395ZM600 391.35H648.861C648.018 377.871 647.457 361.865 646.895 317.778C649.422 317.778 663.463 318.339 670.483 318.339C733.665 318.339 745.178 274.533 745.178 220.337C745.178 157.717 729.733 120.651 672.168 120.651H600C600.842 138.622 601.404 158.56 601.404 308.23C601.404 331.537 601.123 368.604 600 391.35ZM646.333 276.78V161.929C649.703 161.648 662.059 161.368 665.428 161.368C697.721 161.368 700.248 184.956 700.248 219.495C700.248 248.418 697.16 277.341 663.182 277.341C659.812 277.341 650.826 277.061 646.333 276.78ZM766.8 391.35H813.976C812.853 367.762 811.729 323.956 811.448 296.717C818.469 296.436 820.434 296.436 837.564 296.436C851.042 296.436 853.57 305.703 856.939 315.812C863.679 341.927 865.925 358.776 870.137 383.206C870.98 388.541 873.788 391.35 881.089 391.35H922.648C917.875 369.166 911.697 340.523 910.012 333.222C905.8 313.285 900.745 289.697 875.192 284.642L866.768 282.958C873.788 281.554 876.877 280.711 879.685 279.588C910.574 266.39 912.539 232.412 912.539 202.646C912.539 147.327 891.76 120.651 844.022 120.651H766.8C767.081 140.026 767.642 227.358 767.642 256C767.642 281.273 766.8 366.077 766.8 391.35ZM811.168 259.37V159.683H811.448C819.592 159.121 827.735 158.84 833.352 159.121C865.364 160.806 868.733 183.832 868.733 207.42C868.733 234.097 864.24 258.246 840.372 259.651C835.317 259.931 819.592 259.651 811.168 259.37ZM979.091 256C979.091 225.673 979.091 159.121 1014.19 159.121C1049.29 159.121 1049.29 225.673 1049.29 256C1049.29 286.327 1049.29 352.879 1014.19 352.879C979.091 352.879 979.091 286.327 979.091 256ZM1122.3 391.35H1171.16C1170.32 377.871 1169.76 361.865 1169.2 317.778C1171.73 317.778 1185.77 318.339 1192.79 318.339C1255.97 318.339 1267.48 274.533 1267.48 220.337C1267.48 157.717 1252.04 120.651 1194.47 120.651H1122.3C1123.15 138.622 1123.71 158.56 1123.71 308.23C1123.71 331.537 1123.43 368.604 1122.3 391.35ZM1168.64 276.78V161.929C1172.01 161.648 1184.36 161.368 1187.73 161.368C1220.02 161.368 1222.55 184.956 1222.55 219.495C1222.55 248.418 1219.46 277.341 1185.48 277.341C1182.12 277.341 1173.13 277.061 1168.64 276.78ZM1289.1 391.35H1336.28C1336.28 384.329 1335.16 314.689 1335.16 277.903C1353.13 277.622 1378.4 277.622 1396.37 277.903C1396.37 314.689 1395.25 384.329 1395.25 391.35H1442.71C1442.14 368.604 1441.86 330.695 1441.86 307.95V180.463C1441.86 158.56 1442.14 138.622 1442.71 120.651H1395.53C1395.53 127.671 1396.37 197.592 1396.37 235.501C1378.4 235.782 1353.13 235.782 1335.16 235.501C1335.16 197.592 1336.28 127.671 1336.28 120.651H1289.1C1289.66 138.622 1289.95 158.56 1289.95 180.463V307.95C1289.95 330.695 1289.66 368.604 1289.1 391.35ZM1476.12 120.651C1476.4 128.513 1477.24 167.545 1477.24 178.778V353.721C1477.24 367.2 1476.96 379.836 1476.68 391.35H1603.33C1603.05 387.137 1603.05 353.44 1603.33 349.228C1578.05 349.228 1571.6 349.509 1522.17 349.509V272.287C1557.56 272.287 1592.38 272.848 1601.08 273.41V234.097C1596.03 234.097 1574.4 234.659 1522.17 234.659V161.368C1590.13 161.368 1596.59 161.648 1603.33 161.648C1603.05 157.717 1603.05 124.582 1603.33 120.651H1476.12ZM1628.32 200.962C1624.39 231.851 1623.83 279.588 1628.88 310.477C1635.62 357.372 1651.91 395 1703.58 395C1768.16 395 1779.96 334.907 1779.67 282.396H1736.43C1735.87 309.634 1736.15 353.16 1705.54 353.16C1689.25 353.16 1680.83 341.085 1677.46 325.921C1672.41 307.388 1671.84 272.287 1671.84 253.754C1671.84 236.624 1672.97 200.962 1676.9 184.394C1680.55 168.949 1688.97 158.84 1705.26 158.84C1737.55 158.84 1735.87 199.277 1735.87 230.446H1778.55C1779.39 168.949 1771.81 117 1705.82 117C1654.72 117 1636.18 148.17 1628.32 200.962ZM1782.76 120.651H1834.99L1863.64 270.321L1893.68 120.651H1940.58C1928.78 152.382 1889.47 287.731 1883.85 310.196C1883.85 346.982 1884.7 378.152 1884.7 391.63C1879.92 391.63 1874.59 391.069 1869.81 391.069H1854.09C1849.32 391.069 1843.42 391.63 1838.64 391.63C1838.64 378.152 1839.77 346.139 1839.77 309.354C1832.75 281.834 1795.96 152.663 1782.76 120.651Z" fill="#14100D"/>
</svg>
