<svg width="192" height="64" viewBox="0 0 192 64" fill="none" xmlns="http://www.w3.org/2000/svg">
<g filter="url(#filter0_d_304_2810)">
<path d="M53.6576 18.1433C55.0591 18.1433 55.6624 18.7312 55.6624 20.6275C55.6601 22.5522 55.0568 23.1116 53.6529 23.114H52.8571C52.7492 23.114 52.6928 23.0619 52.6928 22.9552L52.6952 18.3045C52.6952 18.1979 52.7492 18.1433 52.8595 18.1433H53.6576Z" fill="#9BF07D"/>
<path d="M91.2038 24.1665C91.2014 28.5753 91.1474 29.0305 91.0089 29.4571C90.8446 29.9644 90.3775 30.3389 89.692 30.3365C89.0042 30.3365 88.537 29.962 88.3727 29.4548C88.2365 29.0281 88.1802 28.573 88.1825 24.1641C88.1849 19.7552 88.2389 19.3001 88.3774 18.8734C88.544 18.3662 89.0112 17.9916 89.6967 17.9916C90.3821 17.9916 90.8493 18.3685 91.0136 18.8758C91.1498 19.3048 91.2038 19.7576 91.2038 24.1665Z" fill="#9BF07D"/>
<path fill-rule="evenodd" clip-rule="evenodd" d="M45.332 37.0848H130.828V10.667H45.332V37.0848ZM56.0145 33.0269C56.0685 33.1857 56.1507 33.2402 56.315 33.2402L59.6156 33.2426C59.7518 33.2426 59.8081 33.1099 59.7518 32.9748L57.2 25.2782C58.4912 24.4248 59.2893 22.9268 59.2893 20.6299C59.2893 16.5931 57.1484 15.069 53.8243 15.069L49.3758 15.0666C49.2115 15.0666 49.1011 15.1733 49.1011 15.3345L49.0941 32.9724C49.0941 33.1336 49.2044 33.2402 49.3687 33.2402H52.4158C52.5801 33.2402 52.6905 33.1336 52.6905 32.9724L52.6928 26.2927C52.6928 26.1836 52.7468 26.1315 52.8571 26.1315H53.9018L56.0145 33.0269ZM62.1463 15.0713C61.9819 15.0713 61.8716 15.178 61.8716 15.3392L61.8646 32.9748C61.8646 33.1359 61.9749 33.2426 62.1392 33.2426L70.2992 33.2521C70.4635 33.2521 70.5738 33.1454 70.5738 32.9842V30.365C70.5738 30.2038 70.4635 30.0971 70.2992 30.0971L65.63 30.0948C65.522 30.0948 65.4656 30.0402 65.4656 29.9336L65.468 25.8186C65.468 25.7119 65.522 25.6574 65.6323 25.6574L69.67 25.6598C69.8344 25.6598 69.9447 25.5531 69.9447 25.3919V22.7727C69.9447 22.6115 69.8344 22.5048 69.67 22.5048L65.6323 22.5025C65.522 22.5025 65.468 22.4503 65.468 22.3436L65.4703 18.3899C65.4703 18.2808 65.5243 18.2287 65.6347 18.2287H70.3039C70.4682 18.2287 70.5785 18.122 70.5785 17.9608V15.3416C70.5785 15.1804 70.4682 15.0737 70.3039 15.0737L62.1463 15.0713ZM72.3321 28.6228C72.3861 31.7493 74.0059 33.4868 77.384 33.4891C81.093 33.4891 82.5485 31.5668 82.5485 27.85C82.5508 24.7756 81.5625 23.4388 79.0084 22.4764L77.8816 22.0473C76.4238 21.4856 76.1233 21.0589 76.1233 19.6959C76.1257 18.4681 76.5905 17.8802 77.553 17.8802C78.5413 17.8802 79.0084 18.5487 79.0343 19.8571C79.0343 20.0183 79.1728 20.0965 79.3371 20.0705L82.14 19.6462C82.3044 19.6201 82.3865 19.5134 82.3865 19.3522C82.2527 16.4936 80.7127 14.8343 77.445 14.8343C74.1233 14.8319 72.5011 16.5955 72.4988 19.8832C72.4988 22.794 73.4049 24.1593 76.0412 25.1478L77.168 25.5768C78.5695 26.1125 78.8981 26.6743 78.8981 28.2767C78.8981 29.9336 78.431 30.4408 77.4145 30.4408C76.3417 30.4408 75.8487 29.7724 75.7947 28.0894C75.7947 27.9282 75.6844 27.85 75.4919 27.8761L72.5528 28.3288C72.3885 28.3549 72.3321 28.4616 72.3321 28.6228ZM84.5298 24.1641C84.5298 28.8408 84.612 29.5875 84.9124 30.4171C85.5979 32.4225 87.2459 33.4915 89.6896 33.4939C92.1334 33.4962 93.7813 32.4272 94.4692 30.4219C94.772 29.5946 94.8542 28.8456 94.8565 24.1688C94.8589 19.4921 94.7743 18.7431 94.4739 17.9158C93.7884 15.9105 92.1404 14.8391 89.6967 14.8391C87.2529 14.8391 85.605 15.9057 84.9171 17.9111C84.6143 18.7407 84.5321 19.4873 84.5298 24.1641ZM97.69 15.0832C97.5256 15.0832 97.4153 15.1899 97.4153 15.3511L97.4106 32.989C97.4106 33.1502 97.5209 33.2568 97.6853 33.2568L105.897 33.2592C106.061 33.2592 106.172 33.1525 106.172 32.9913V30.3721C106.172 30.2109 106.061 30.1042 105.897 30.1042L101.174 30.1066C101.066 30.1066 101.009 30.0521 101.009 29.9454L101.014 15.3534C101.014 15.1922 100.904 15.0856 100.739 15.0856L97.69 15.0832ZM109.195 32.9913C109.249 33.1525 109.331 33.2592 109.496 33.2592L112.463 33.2639C112.627 33.2639 112.709 33.1573 112.738 32.9961L116.479 15.3605C116.536 15.1993 116.454 15.0927 116.261 15.0927L113.212 15.0903C113.045 15.0903 112.937 15.1709 112.909 15.3582L111.092 26.8473H111.01L109.12 15.3558C109.092 15.1685 108.981 15.0879 108.817 15.0879L105.714 15.0856C105.521 15.0856 105.437 15.1922 105.493 15.3534L109.195 32.9913ZM118.703 15.0879C118.538 15.0879 118.428 15.1946 118.428 15.3558L118.426 32.9961C118.426 33.1573 118.536 33.2639 118.7 33.2639L126.858 33.2663C127.022 33.2663 127.132 33.1596 127.132 32.9985V30.3816C127.132 30.2204 127.022 30.1137 126.858 30.1137L122.189 30.1113C122.078 30.1113 122.024 30.0568 122.024 29.9502L122.027 25.8352C122.027 25.7262 122.081 25.674 122.191 25.674L126.229 25.6764C126.393 25.6764 126.503 25.5697 126.503 25.4085V22.7893C126.503 22.6281 126.393 22.5214 126.229 22.5214L122.191 22.5191C122.081 22.5191 122.027 22.4645 122.027 22.3579V18.4041C122.027 18.2974 122.081 18.2453 122.191 18.2453H126.86C127.024 18.2453 127.135 18.1386 127.135 17.9774V15.3582C127.135 15.197 127.024 15.0903 126.86 15.0903L118.703 15.0879Z" fill="#9BF07D"/>
<path d="M132.543 37.0848H146.274V10.667H132.543V37.0848Z" fill="#9BF07D"/>
<path d="M87.6614 45.9359C87.6614 48.0503 87.6356 48.2708 87.5698 48.4746C87.49 48.7188 87.267 48.8989 86.9383 48.8989C86.6073 48.8989 86.3843 48.7188 86.3045 48.4746C86.2388 48.2684 86.213 48.0503 86.213 45.9359C86.213 43.8216 86.2388 43.6035 86.3045 43.3973C86.3843 43.1555 86.6097 42.9753 86.9383 42.9753C87.267 42.9753 87.49 43.1555 87.5698 43.3973C87.6332 43.6035 87.6614 43.8216 87.6614 45.9359Z" fill="#9BF07D"/>
<path d="M101.812 44.234L102.378 47.2586H101.181L101.772 44.234H101.812Z" fill="#9BF07D"/>
<path fill-rule="evenodd" clip-rule="evenodd" d="M146.217 53.12H75.6159V38.7555H146.217V53.12ZM80.4287 50.167C80.4287 50.2453 80.4803 50.295 80.5602 50.295H82.0227C82.1001 50.295 82.1541 50.2453 82.1541 50.167V43.1697C82.1541 43.1199 82.1799 43.0939 82.2339 43.0939H83.6424C83.7199 43.0939 83.7739 43.0417 83.7739 42.9659V41.7096C83.7739 41.6313 83.7223 41.5816 83.6424 41.5816H78.9404C78.8605 41.5816 78.8089 41.6313 78.8089 41.7096V42.9659C78.8089 43.0417 78.8605 43.0939 78.9404 43.0939H80.3489C80.4029 43.0939 80.4287 43.1199 80.4287 43.1697V50.167ZM84.4594 45.9383C84.4594 48.1807 84.4993 48.5386 84.6448 48.9368C84.9735 49.8968 85.7646 50.4112 86.936 50.4112C88.1074 50.4112 88.8985 49.8968 89.2272 48.9368C89.3727 48.541 89.4126 48.1807 89.4126 45.9383C89.4126 43.6959 89.3727 43.338 89.2272 42.9398C88.8985 41.9774 88.1074 41.4654 86.936 41.4654C85.7646 41.4654 84.9735 41.9798 84.6448 42.9398C84.4993 43.3356 84.4594 43.6959 84.4594 45.9383ZM93.3259 48.0788C93.3541 49.5792 94.1311 50.4112 95.7509 50.4112C97.5303 50.4112 98.2275 49.4868 98.2228 47.7137C98.2228 46.2393 97.7486 45.5993 96.5232 45.1371L95.9833 44.9309C95.2861 44.6607 95.1406 44.4568 95.1406 43.8026C95.1406 43.2124 95.3659 42.9303 95.826 42.9303C96.3002 42.9303 96.5232 43.2503 96.5373 43.8785C96.5373 43.9543 96.6031 43.9922 96.6829 43.9804L98.028 43.7742C98.1055 43.7599 98.1454 43.7102 98.1454 43.6319C98.0796 42.2595 97.3425 41.4654 95.7744 41.4654C94.1804 41.4654 93.4034 42.3116 93.4034 43.8879C93.4034 45.2841 93.8377 45.9383 95.103 46.4124L95.6429 46.6162C96.3167 46.8722 96.4739 47.1401 96.4739 47.9105C96.4739 48.7045 96.2486 48.9487 95.7627 48.9487C95.2485 48.9487 95.0114 48.6263 94.9856 47.8204C94.9856 47.7445 94.9316 47.7066 94.8401 47.7185L93.4316 47.9365C93.3541 47.9508 93.3259 48.0005 93.3259 48.0788ZM101.007 41.5816C100.927 41.5816 100.887 41.6313 100.861 41.7096L98.9107 50.1694C98.8966 50.2476 98.9365 50.2974 99.0163 50.2974H100.479C100.57 50.2974 100.61 50.2453 100.624 50.1694L100.927 48.5931H102.627L102.916 50.1694C102.93 50.2476 102.97 50.2974 103.061 50.2974H104.524C104.603 50.2974 104.643 50.2453 104.629 50.1694L102.707 41.7096C102.693 41.6313 102.641 41.5816 102.561 41.5816H101.007ZM106.58 50.167C106.608 50.2453 106.646 50.295 106.726 50.295H108.148C108.226 50.295 108.266 50.2453 108.28 50.167L110.071 41.7096C110.097 41.6313 110.057 41.5816 109.965 41.5816H108.503C108.423 41.5816 108.371 41.6195 108.357 41.7096L107.488 47.2207H107.449L106.54 41.7096C106.528 41.6195 106.477 41.5816 106.397 41.5816H104.909C104.817 41.5816 104.777 41.6313 104.803 41.7096L106.58 50.167ZM111.256 41.5816C111.179 41.5816 111.125 41.6313 111.125 41.7096V50.1694C111.125 50.2476 111.176 50.2974 111.256 50.2974H115.17C115.247 50.2974 115.301 50.2453 115.301 50.1694V48.9131C115.301 48.8373 115.249 48.7851 115.17 48.7851H112.93C112.876 48.7851 112.85 48.7591 112.85 48.7093V46.7348C112.85 46.6826 112.876 46.6565 112.93 46.6565H114.867C114.944 46.6565 114.998 46.6044 114.998 46.5285V45.2722C114.998 45.1964 114.947 45.1442 114.867 45.1442H112.93C112.876 45.1442 112.85 45.1182 112.85 45.0684V43.1721C112.85 43.1199 112.876 43.0939 112.93 43.0939H115.17C115.247 43.0939 115.301 43.0441 115.301 42.9659V41.7096C115.301 41.6313 115.249 41.5816 115.17 41.5816H111.256ZM119.491 41.5816C119.414 41.5816 119.36 41.6313 119.36 41.7096H119.358V50.167C119.358 50.2453 119.409 50.295 119.489 50.295H123.428C123.506 50.295 123.56 50.2429 123.56 50.167V48.9108C123.56 48.8349 123.508 48.7828 123.428 48.7828H121.163C121.111 48.7828 121.085 48.7567 121.085 48.7069V41.7096C121.085 41.6313 121.034 41.5816 120.954 41.5816H119.491ZM124.827 41.5816C124.75 41.5816 124.696 41.6313 124.696 41.7096V50.1694C124.696 50.2476 124.747 50.2974 124.827 50.2974H126.29C126.367 50.2974 126.421 50.2453 126.421 50.1694V41.7096C126.421 41.6313 126.37 41.5816 126.29 41.5816H124.827ZM129.252 50.167C129.28 50.2453 129.318 50.295 129.398 50.295H130.818C130.896 50.295 130.935 50.2453 130.95 50.167L132.741 41.7096C132.767 41.6313 132.727 41.5816 132.635 41.5816H131.173C131.095 41.5816 131.043 41.6195 131.029 41.7096L130.161 47.2207H130.121L129.212 41.7096C129.201 41.6195 129.149 41.5816 129.069 41.5816H127.581C127.487 41.5816 127.449 41.6313 127.475 41.7096L129.252 50.167ZM133.931 41.5816C133.853 41.5816 133.799 41.6313 133.799 41.7096V50.1694C133.799 50.2476 133.851 50.2974 133.931 50.2974H137.844C137.922 50.2974 137.976 50.2453 137.976 50.1694V48.9131C137.976 48.8373 137.924 48.7851 137.844 48.7851H135.605C135.551 48.7851 135.525 48.7591 135.525 48.7093V46.7348C135.525 46.6826 135.551 46.6565 135.605 46.6565H137.541C137.619 46.6565 137.673 46.6044 137.673 46.5285V45.2722C137.673 45.1964 137.619 45.1442 137.541 45.1442H135.605C135.551 45.1442 135.525 45.1182 135.525 45.0684V43.1721C135.525 43.1199 135.551 43.0939 135.605 43.0939H137.844C137.922 43.0939 137.976 43.0441 137.976 42.9659V41.7096C137.976 41.6313 137.924 41.5816 137.844 41.5816H133.931ZM138.936 48.0788C138.964 49.5792 139.741 50.4112 141.361 50.4112C143.14 50.4112 143.837 49.4868 143.835 47.7137C143.835 46.2393 143.361 45.5993 142.135 45.1371L141.596 44.9309C140.898 44.6607 140.753 44.4568 140.753 43.8026C140.753 43.2124 140.978 42.9303 141.438 42.9303C141.912 42.9303 142.135 43.2503 142.15 43.8785C142.15 43.9543 142.213 43.9922 142.293 43.9804L143.638 43.7742C143.715 43.7599 143.755 43.7102 143.755 43.6319C143.689 42.2595 142.952 41.4654 141.384 41.4654C139.79 41.4654 139.013 42.3116 139.013 43.8879C139.013 45.2841 139.448 45.9383 140.713 46.4124L141.253 46.6162C141.927 46.8722 142.084 47.1401 142.084 47.9105C142.084 48.7045 141.858 48.9487 141.372 48.9487C140.858 48.9487 140.621 48.6263 140.595 47.8204C140.595 47.7445 140.541 47.7066 140.45 47.7185L139.041 47.9365C138.962 47.9508 138.936 48.0005 138.936 48.0788Z" fill="#9BF07D"/>
<path d="M45.6143 53.12H74.0192V38.7555H45.6143V53.12Z" fill="#9BF07D"/>
</g>
<defs>
<filter id="filter0_d_304_2810" x="41.332" y="7.66699" width="108.942" height="50.4531" filterUnits="userSpaceOnUse" color-interpolation-filters="sRGB">
<feFlood flood-opacity="0" result="BackgroundImageFix"/>
<feColorMatrix in="SourceAlpha" type="matrix" values="0 0 0 0 0 0 0 0 0 0 0 0 0 0 0 0 0 0 127 0" result="hardAlpha"/>
<feOffset dy="1"/>
<feGaussianBlur stdDeviation="2"/>
<feComposite in2="hardAlpha" operator="out"/>
<feColorMatrix type="matrix" values="0 0 0 0 0 0 0 0 0 0 0 0 0 0 0 0 0 0 0.04 0"/>
<feBlend mode="normal" in2="BackgroundImageFix" result="effect1_dropShadow_304_2810"/>
<feBlend mode="normal" in="SourceGraphic" in2="effect1_dropShadow_304_2810" result="shape"/>
</filter>
</defs>
</svg>
