<svg width="192" height="64" viewBox="0 0 192 64" fill="none" xmlns="http://www.w3.org/2000/svg">
<g filter="url(#filter0_d_304_2808)">
<path d="M146.225 33.5202C146.429 33.7225 146.696 33.8251 146.963 33.8251C147.231 33.8251 147.498 33.7225 147.7 33.5202C147.904 33.3179 148.006 33.0517 148.006 32.7855C148.006 32.5192 147.904 32.2545 147.7 32.0507C147.497 31.8484 147.229 31.7473 146.963 31.7473C146.696 31.7473 146.429 31.8484 146.225 32.0507C146.022 32.2545 145.919 32.5207 145.919 32.7855C145.919 33.0517 146.022 33.3165 146.225 33.5202ZM151.49 28.2772C151.755 28.5405 152.101 28.6728 152.449 28.6728C152.796 28.6728 153.144 28.5405 153.408 28.2772C153.674 28.0139 153.806 27.6674 153.806 27.3223C153.806 26.9757 153.674 26.6307 153.408 26.3674C153.144 26.1041 152.796 25.9718 152.449 25.9718C152.101 25.9718 151.755 26.1041 151.49 26.3674C151.226 26.6307 151.093 26.9757 151.093 27.3223C151.093 27.6674 151.226 28.0139 151.49 28.2772ZM151.483 39.1961C151.747 39.4594 152.094 39.5917 152.442 39.5917C152.788 39.5917 153.136 39.4594 153.401 39.1961C153.667 38.9328 153.798 38.5863 153.798 38.2412C153.798 37.8946 153.667 37.5495 153.401 37.2863C153.136 37.023 152.788 36.8906 152.442 36.8906C152.094 36.8906 151.747 37.023 151.483 37.2863C151.219 37.5495 151.086 37.8946 151.086 38.2412C151.086 38.5863 151.219 38.9328 151.483 39.1961ZM156.687 23.1011C157.032 23.4447 157.483 23.6157 157.934 23.6157C158.385 23.6157 158.836 23.4447 159.181 23.1011C159.526 22.7575 159.698 22.3083 159.698 21.8591C159.698 21.4099 159.526 20.9608 159.181 20.6172C158.836 20.2736 158.385 20.1025 157.934 20.1025C157.483 20.1025 157.032 20.2736 156.687 20.6172C156.342 20.9608 156.17 21.4099 156.17 21.8591C156.17 22.3098 156.342 22.759 156.687 23.1011ZM156.681 34.02C157.026 34.3636 157.477 34.5346 157.928 34.5346C158.379 34.5346 158.83 34.3636 159.175 34.02C159.52 33.6764 159.692 33.2272 159.692 32.778C159.692 32.3288 159.52 31.8796 159.175 31.5361C158.83 31.1925 158.379 31.0214 157.928 31.0214C157.477 31.0214 157.026 31.1925 156.681 31.5361C156.336 31.8796 156.164 32.3288 156.164 32.778C156.164 33.2272 156.336 33.6764 156.681 34.02ZM156.675 44.9389C157.02 45.2825 157.471 45.4535 157.922 45.4535C158.373 45.4535 158.824 45.2825 159.169 44.9389C159.514 44.5953 159.686 44.1461 159.686 43.6969C159.686 43.2477 159.514 42.7985 159.169 42.4549C158.824 42.1114 158.373 41.9403 157.922 41.9403C157.471 41.9403 157.02 42.1114 156.675 42.4549C156.33 42.7985 156.158 43.2477 156.158 43.6969C156.158 44.1461 156.33 44.5953 156.675 44.9389ZM161.792 28.9302C162.239 29.3764 162.826 29.598 163.412 29.598C163.999 29.598 164.586 29.3764 165.035 28.9302C165.481 28.4854 165.705 27.9009 165.705 27.3164C165.705 26.7318 165.481 26.1473 165.033 25.7011C164.585 25.2548 163.998 25.0317 163.411 25.0317C162.824 25.0317 162.237 25.2548 161.79 25.6996C161.342 26.1458 161.118 26.7303 161.118 27.3149C161.12 27.9009 161.344 28.4854 161.792 28.9302ZM161.786 39.849C162.233 40.2953 162.82 40.5169 163.407 40.5169C163.994 40.5169 164.581 40.2953 165.029 39.849C165.475 39.4028 165.699 38.8198 165.699 38.2352C165.699 37.6507 165.475 37.0661 165.027 36.6199C164.579 36.1737 163.992 35.9506 163.405 35.9506C162.818 35.9506 162.231 36.1722 161.784 36.6184C161.336 37.0647 161.112 37.6492 161.112 38.2337C161.114 38.8198 161.338 39.4028 161.786 39.849ZM166.785 34.8708C167.368 35.4509 168.129 35.7409 168.893 35.7409C169.656 35.7409 170.418 35.4509 170.999 34.8708C171.581 34.2907 171.872 33.5306 171.872 32.7721C171.872 32.0135 171.581 31.2535 170.999 30.6749C170.416 30.0948 169.654 29.8047 168.893 29.8047C168.129 29.8047 167.368 30.0948 166.785 30.6749C166.203 31.2549 165.911 32.0135 165.911 32.7721C165.911 33.5306 166.203 34.2907 166.785 34.8708Z" fill="#9BF07D"/>
<path d="M134.077 27.383V24.8187C135.528 25.2783 136.825 25.5074 137.966 25.5074C139.522 25.5074 140.3 25.0983 140.3 24.2788C140.3 23.9724 140.19 23.7166 139.97 23.5083C139.737 23.2867 139.14 22.9818 138.178 22.5921C136.469 21.896 135.348 21.2966 134.825 20.7953C134.151 20.1468 133.812 19.3184 133.812 18.3114C133.812 17.0352 134.302 16.0595 135.286 15.3887C136.254 14.7224 137.521 14.3892 139.082 14.3892C139.957 14.3892 141.094 14.529 142.487 14.8071L142.81 14.8622V17.3283C141.598 16.8463 140.474 16.6069 139.43 16.6069C137.975 16.6069 137.247 17.007 137.247 17.8087C137.247 18.1076 137.395 18.3516 137.688 18.542C137.921 18.6877 138.601 19.012 139.722 19.5132C141.301 20.2153 142.359 20.8266 142.889 21.3472C143.516 21.9644 143.83 22.7617 143.83 23.7419C143.83 25.1474 143.217 26.2198 141.997 26.9591C140.996 27.557 139.703 27.856 138.121 27.856C136.78 27.856 135.431 27.6983 134.077 27.383ZM128.927 14.6153V23.3031L124.453 14.6153H120.234V27.5927H122.798V18.7889L127.394 27.5927H131.493V14.6153H128.927ZM108.35 14.6153V27.5927H117.838V25.1132H111.859V22.0343H116.933V19.8925H111.859V16.9624H117.686V14.6153H108.35ZM100.53 14.6153L97.1678 22.9074L93.8908 14.6153H89.171V27.5927H91.7355V18.4051L95.4845 27.7236H97.7413L101.564 18.4051V27.5927H105.014V14.6153H100.53ZM77.3072 14.6153V27.5927H86.7931V25.1132H80.8157V22.0343H85.888V19.8925H80.8157V16.9624H86.6423V14.6153H77.3072ZM70.329 27.5927H73.969V14.6138H70.329V27.5927ZM58.5235 27.383V24.8187C59.9887 25.2783 61.2837 25.5074 62.4129 25.5074C63.9692 25.5074 64.7474 25.0983 64.7474 24.2788C64.7474 23.9724 64.6339 23.7166 64.4068 23.5083C64.1738 23.2867 63.5809 22.9818 62.6235 22.5921C60.9088 21.8901 59.7901 21.2906 59.2688 20.7953C58.5967 20.1409 58.2591 19.3169 58.2591 18.3189C58.2591 17.0367 58.7505 16.058 59.7333 15.3872C60.7027 14.7209 61.9678 14.3877 63.5271 14.3877C64.3874 14.3877 65.6301 14.5454 67.2567 14.8607V17.3268C66.0468 16.8449 64.9221 16.6054 63.8856 16.6054C62.4233 16.6054 61.6929 17.0055 61.6929 17.8072C61.6929 18.1062 61.8408 18.3501 62.135 18.5405C62.38 18.6922 63.0551 19.0164 64.1589 19.5117C65.7481 20.2138 66.8086 20.8251 67.3343 21.3457C67.9601 21.9629 68.2753 22.7602 68.2753 23.7404C68.2753 25.1459 67.6614 26.2183 66.4322 26.9576C65.4389 27.5555 64.1484 27.8545 62.5652 27.8545C61.2269 27.856 59.8797 27.6983 58.5235 27.383Z" fill="#9BF07D"/>
<path d="M69.341 40.3667H72.2834V37.9274H69.341V34.3933H66.2193V37.9289H64.4867V40.3682H66.2193V45.8923C66.2193 47.7724 66.3986 49.6063 69.6337 49.6063C70.6225 49.6063 71.8114 49.3163 72.4865 48.8909L71.8114 46.8085C71.3185 47.0108 70.8466 47.167 70.4403 47.167C69.6098 47.167 69.341 46.6747 69.341 45.4446V40.3667ZM143.045 38.5788L143.054 38.5521C142.059 37.9036 140.757 37.5139 139.335 37.5882C137.027 37.7087 135.212 39.0786 135.338 41.4465C135.463 43.8159 137.197 44.3752 138.903 44.7783C139.883 45.0177 140.703 45.2007 140.748 46.0723C140.793 46.9216 140.204 47.289 139.375 47.3321C138.359 47.3842 137.075 46.935 136.248 46.5111L135.317 48.644C135.973 49.0813 137.662 49.703 139.651 49.6004C142.25 49.465 143.952 48.1011 143.82 45.5755C143.698 43.2507 141.831 42.7435 140.167 42.3152C139.142 42.0563 138.386 41.8035 138.34 40.9319C138.301 40.1941 138.893 39.8714 139.634 39.8327C140.4 39.794 141.226 40.1287 142.102 40.74L143.045 38.5788ZM130.393 42.2229C130.437 41.039 131.156 40.2774 132.279 40.2774C132.863 40.2774 133.404 40.4336 133.873 40.6805L134.434 37.9958C133.895 37.7043 133.201 37.5927 132.57 37.5927C131.516 37.5927 130.415 38.2189 129.876 39.5382L129.583 37.9274H127.044L127.269 39.8967V49.2687H130.391L130.393 42.2229ZM96.2276 49.2687V41.9983C96.2276 40.9244 96.9923 39.9859 98.1812 39.9859C99.3731 39.9859 99.5733 40.9021 99.5733 42.1322V49.2687H102.695V41.5283C102.695 38.8451 101.348 37.5912 99.1252 37.5912C97.6196 37.5912 96.4964 38.2189 95.7332 39.269L95.5076 37.9259H92.9013L93.1044 40.029V49.2672H96.2276V49.2687ZM87.0762 34.3844C87.0762 34.8559 87.242 35.256 87.5362 35.5386C87.8305 35.8197 88.2546 35.9848 88.7714 35.9848C89.2778 35.9848 89.7064 35.8197 90.0082 35.5386C90.3114 35.256 90.4876 34.8574 90.4876 34.3844C90.4876 33.9456 90.3114 33.547 90.0082 33.2555C89.7064 32.9655 89.2763 32.7855 88.7714 32.7855C88.2651 32.7855 87.8409 32.9655 87.5452 33.2555C87.2465 33.547 87.0762 33.9456 87.0762 34.3844ZM87.2196 49.2702H90.3427V37.9289H87.2196V49.2702ZM77.989 49.2687V41.9537C77.989 40.9021 78.7523 39.9859 79.8979 39.9859C81.0883 39.9859 81.3347 40.8798 81.3347 42.043V49.2687H84.4564V41.5744C84.4564 38.912 83.1764 37.5912 80.8179 37.5912C79.7171 37.5912 78.7075 37.9943 77.9875 38.7544V34.3933H74.8659V49.2687H77.989ZM58.5138 34.4171V45.8923C58.5138 47.7709 58.693 49.6063 61.9282 49.6063C62.917 49.6063 64.1059 49.3163 64.781 48.8909L64.1074 46.81C63.613 47.0123 63.1425 47.1685 62.7392 47.1685C61.9058 47.1685 61.6369 46.6762 61.6369 45.4461V34.4186H58.5138V34.4171ZM55.9089 49.2687L55.6834 47.0108V38.4197C53.9762 37.7935 52.3138 37.5927 51.5505 37.5927C47.576 37.5927 45.5985 40.1659 45.5985 44.103C45.5985 47.1224 46.6993 49.5825 49.9554 49.5825C51.1697 49.5825 52.2914 49.1348 52.965 48.1055L53.0785 48.1293L53.2353 49.2687H55.9089ZM52.5841 45.6454C52.5841 46.4724 51.9105 47.3232 50.7425 47.3232C49.0801 47.3232 48.6977 45.7346 48.6977 43.923C48.6977 41.7306 49.3265 39.8967 51.1697 39.8967C51.7537 39.8967 52.2914 40.0082 52.5841 40.1421V45.6454ZM28.864 34.3948V40.3221H24.2816V34.3948H21.0703V49.2702H24.2816V43.1183H28.864V49.2702H32.0768V34.3948H28.864ZM43.8017 40.859C43.8017 38.735 42.3409 37.5927 40.0721 37.5927C36.3888 37.5927 34.48 40.5913 34.48 43.8784C34.48 47.2339 36.008 49.6048 39.8256 49.6048C42.0959 49.6048 43.6672 48.5756 43.9361 48.3524L43.0384 46.2731C42.4096 46.697 41.4432 47.2339 40.2304 47.2339C38.5232 47.2339 37.8033 46.0916 37.6465 45.0192C40.3648 44.9077 43.8017 44.2354 43.8017 40.859ZM41.0609 40.8828C41.0609 42.4252 38.9713 42.7837 37.512 42.8283C37.5778 41.2844 38.3873 39.7851 39.9153 39.7851C40.6113 39.7851 41.0609 40.209 41.0609 40.8828ZM124.844 40.859C124.844 38.735 123.383 37.5927 121.114 37.5927C117.431 37.5927 115.522 40.5913 115.522 43.8784C115.522 47.2339 117.05 49.6048 120.868 49.6048C123.138 49.6048 124.709 48.5756 124.978 48.3524L124.079 46.2731C123.45 46.697 122.485 47.2339 121.273 47.2339C119.565 47.2339 118.847 46.0916 118.689 45.0192C121.408 44.9077 124.844 44.2354 124.844 40.859ZM122.104 40.8828C122.104 42.4252 120.015 42.7837 118.556 42.8283C118.621 41.2844 119.431 39.7851 120.959 39.7851C121.653 39.7851 122.104 40.209 122.104 40.8828ZM113.951 40.859C113.951 38.735 112.49 37.5927 110.221 37.5927C106.538 37.5927 104.629 40.5913 104.629 43.8784C104.629 47.2339 106.157 49.6048 109.975 49.6048C112.245 49.6048 113.816 48.5756 114.085 48.3524L113.188 46.2731C112.559 46.697 111.592 47.2339 110.38 47.2339C108.672 47.2339 107.952 46.0916 107.796 45.0192C110.514 44.9077 113.951 44.2354 113.951 40.859ZM111.21 40.8828C111.21 42.4252 109.12 42.7837 107.661 42.8283C107.727 41.2844 108.536 39.7851 110.064 39.7851C110.76 39.7851 111.21 40.209 111.21 40.8828Z" fill="#9BF07D"/>
</g>
<defs>
<filter id="filter0_d_304_2808" x="17.0703" y="11.3877" width="158.802" height="43.2236" filterUnits="userSpaceOnUse" color-interpolation-filters="sRGB">
<feFlood flood-opacity="0" result="BackgroundImageFix"/>
<feColorMatrix in="SourceAlpha" type="matrix" values="0 0 0 0 0 0 0 0 0 0 0 0 0 0 0 0 0 0 127 0" result="hardAlpha"/>
<feOffset dy="1"/>
<feGaussianBlur stdDeviation="2"/>
<feComposite in2="hardAlpha" operator="out"/>
<feColorMatrix type="matrix" values="0 0 0 0 0 0 0 0 0 0 0 0 0 0 0 0 0 0 0.04 0"/>
<feBlend mode="normal" in2="BackgroundImageFix" result="effect1_dropShadow_304_2808"/>
<feBlend mode="normal" in="SourceGraphic" in2="effect1_dropShadow_304_2808" result="shape"/>
</filter>
</defs>
</svg>
