<svg width="192" height="64" viewBox="0 0 192 64" fill="none" xmlns="http://www.w3.org/2000/svg">
<g filter="url(#filter0_d_304_2820)">
<path fill-rule="evenodd" clip-rule="evenodd" d="M179.239 30.9255C179.172 29.3447 177.877 27.9472 175.935 27.9472C173.797 27.9472 172.564 29.2792 172.369 30.9212L179.239 30.9255ZM175.997 25.5454C179.496 25.5454 182.09 28.0782 182.09 31.5631C182.09 31.8164 182.09 32.2575 182.024 32.4496C182.024 32.764 181.7 33.0217 181.438 33.0217H172.169C172.169 34.7947 173.855 36.5677 176.187 36.5677C177.744 36.5677 178.649 36 179.491 35.4934C179.753 35.3013 180.01 35.2401 180.272 35.5546L181.048 36.7598C181.31 37.0131 181.372 37.2664 180.986 37.6463C180.015 38.4717 178.263 39.2927 175.997 39.2927C171.912 39.2927 169.322 36.1878 169.322 32.454C169.322 28.7115 171.917 25.5454 175.997 25.5454ZM157.854 37.9564C157.658 37.8298 157.463 37.5765 157.592 37.2577L158.177 36.0568C158.306 35.8035 158.696 35.6768 159.02 35.869C159.801 36.31 160.767 36.8166 162.324 36.8166C163.424 36.8166 164.076 36.31 164.076 35.5502C164.076 34.6637 163.038 34.096 161.224 33.2706C159.149 32.3841 157.596 31.3098 157.596 29.1525C157.596 27.5062 158.763 25.6065 162.005 25.6065C163.885 25.6065 165.247 26.1786 165.894 26.5585C166.218 26.8118 166.351 27.1917 166.156 27.5062L165.703 28.3927C165.508 28.7726 165.118 28.7726 164.861 28.646C163.956 28.266 163.047 28.0127 162.009 28.0127C160.843 28.0127 160.324 28.5805 160.324 29.1525C160.324 29.9735 161.295 30.4801 162.59 31.0522C165.051 32.0653 166.932 32.9518 166.932 35.358C166.932 37.3843 165.118 39.1573 162.133 39.1573C160.12 39.284 158.63 38.463 157.854 37.9564ZM148.456 36.9433C149.818 36.9433 151.179 35.9956 151.569 35.3624V33.2095C151.374 33.0828 150.337 32.764 149.108 32.764C147.551 32.764 146.318 33.5894 146.318 34.917C146.381 36.0568 147.095 36.9433 148.456 36.9433ZM148.908 30.6722C150.27 30.6722 151.627 31.0522 151.627 31.0522C151.694 28.9647 151.175 28.0782 149.489 28.0782C147.933 28.0782 146.443 28.5193 145.733 28.7115C145.343 28.7726 145.086 28.5237 144.957 28.1394L144.695 27.0607C144.633 26.6153 144.824 26.4275 145.148 26.3009C145.405 26.2397 147.285 25.541 149.747 25.541C154.022 25.541 154.412 28.0739 154.412 31.3011V38.2665C154.39 38.6071 154.111 38.8778 153.765 38.8997H152.793C152.532 38.8997 152.403 38.773 152.275 38.4586L151.951 37.5721C150.851 38.6464 149.356 39.2403 147.804 39.2185C145.276 39.2185 143.462 37.5721 143.462 34.8515C143.529 32.5108 145.476 30.6722 148.908 30.6722ZM136.336 25.5454C138.411 25.5454 139.963 26.3052 141.196 27.825C141.458 28.1438 141.387 28.5237 141.068 28.777L140.03 29.729C139.64 30.0434 139.382 29.7901 139.187 29.6023C138.606 28.9691 137.502 28.2704 136.402 28.2704C134.136 28.2704 132.318 30.1089 132.318 32.3885C132.318 34.7336 134.069 36.5677 136.273 36.5677C138.021 36.5677 138.735 35.6201 139.449 34.9213C139.706 34.6681 140.034 34.6681 140.354 34.8558L141.263 35.5546C141.586 35.8078 141.715 36.1266 141.52 36.5022C140.42 38.1486 138.606 39.2228 136.273 39.2228C132.513 39.2228 129.404 36.31 129.404 32.3841C129.466 28.5805 132.641 25.5454 136.336 25.5454ZM123.248 19.7154C123.248 19.401 123.505 19.0822 123.896 19.0822H125.514C125.86 19.1041 126.135 19.3748 126.162 19.7154V38.3363C126.14 38.677 125.86 38.9433 125.514 38.9696H123.896C123.537 38.9696 123.248 38.6857 123.248 38.3363V19.7154ZM116.117 19.7154C116.117 19.401 116.379 19.0822 116.764 19.0822H118.383C118.729 19.1041 119.004 19.3748 119.031 19.7154V38.3363C119.008 38.677 118.729 38.9433 118.383 38.9696H116.764C116.405 38.9696 116.117 38.6857 116.117 38.3363V19.7154ZM106.138 36.9433C107.5 36.9433 108.857 35.9956 109.247 35.3624V33.2095C109.052 33.0828 108.014 32.764 106.786 32.764C105.229 32.764 104.001 33.5894 104.001 34.917C104.001 36.0568 104.71 36.9433 106.138 36.9433ZM106.529 30.6722C107.89 30.6722 109.247 31.0522 109.247 31.0522C109.314 28.9647 108.795 28.0782 107.11 28.0782C105.558 28.0782 104.067 28.5193 103.353 28.7115C102.963 28.7726 102.706 28.5237 102.573 28.1394L102.311 27.0607C102.249 26.6153 102.44 26.4275 102.764 26.3009C103.021 26.2397 104.901 25.541 107.362 25.541C111.638 25.541 112.095 28.0739 112.095 31.3011V38.2665C112.072 38.6071 111.793 38.8778 111.447 38.8997H110.476C110.219 38.8997 110.09 38.773 109.895 38.4586L109.571 37.5721C108.471 38.6464 106.977 39.2359 105.424 39.2185C102.897 39.2185 101.083 37.5721 101.083 34.8515C101.149 32.5108 103.092 30.6722 106.529 30.6722ZM78.0124 26.493C78.0124 26.1786 78.2697 25.8598 78.6599 25.8598H79.3074C79.6312 25.8598 79.8263 25.9865 79.8928 26.2397L80.2831 27.3795C80.5403 27.0651 81.9684 25.5454 84.5583 25.5454C86.5008 25.5454 87.6672 26.3052 88.6384 27.6372C89.0287 27.2573 90.5809 25.5454 93.1753 25.5454C97.2598 25.5454 98.2976 28.3315 98.2976 31.7509V38.3363C98.2976 38.6857 98.0049 38.9696 97.6501 38.9696H96.0314C95.6411 38.9696 95.3839 38.7163 95.3839 38.3363V31.6243C95.3839 29.5325 94.5412 28.266 92.7274 28.266C90.7184 28.266 89.7471 29.598 89.4855 29.7857C89.552 30.039 89.6141 30.8644 89.6141 31.5587V38.3363C89.6141 38.6508 89.3569 38.9696 89.0331 38.9696H87.3479C86.9576 38.9696 86.7004 38.7163 86.7004 38.3363V31.6243C86.7004 29.4713 85.9198 28.266 84.0439 28.266C82.0349 28.266 80.9971 29.7246 80.8685 30.17V38.3363C80.8463 38.677 80.5669 38.9477 80.221 38.9696H78.6023C78.2431 38.9696 77.9548 38.6857 77.9548 38.3363V26.493H78.0124ZM65.7633 37.9564C65.5682 37.8298 65.373 37.5765 65.5061 37.2577L66.087 36.0568C66.2157 35.8035 66.6059 35.6768 66.9297 35.869C67.7058 36.31 68.677 36.8166 70.2337 36.8166C71.338 36.8166 71.981 36.31 71.981 35.5502C71.981 34.6637 70.9432 34.096 69.1294 33.2706C67.0539 32.3841 65.5016 31.3098 65.5016 29.1525C65.5016 27.5062 66.668 25.6065 69.9099 25.6065C71.7903 25.6065 73.1518 26.1786 73.7993 26.5585C74.1231 26.8118 74.2517 27.1917 74.061 27.5062L73.6086 28.3927C73.4135 28.7726 73.0276 28.7726 72.766 28.646C71.8613 28.266 70.9521 28.0127 69.9144 28.0127C68.748 28.0127 68.2291 28.5805 68.2291 29.1525C68.2291 29.9735 69.2003 30.4801 70.4998 31.0522C72.9611 32.0653 74.8415 32.9518 74.8415 35.358C74.8415 37.3843 73.0276 39.1573 70.0474 39.1573C68.034 39.284 66.5438 38.463 65.7633 37.9564ZM29.9871 16.5101L37.4377 20.0473C37.8058 20.222 37.961 20.6543 37.7792 21.0168C37.7082 21.1609 37.5929 21.2745 37.451 21.3487L30.2222 24.9646C30.0093 25.0694 29.7565 25.0694 29.5436 24.9646L22.093 21.4273C21.7249 21.2526 21.5697 20.8159 21.7471 20.4578C21.8181 20.3137 21.9334 20.2002 22.0753 20.1303L29.3041 16.5144C29.5214 16.4053 29.7742 16.4053 29.9871 16.5101ZM30.0403 29.9473L47.6779 21.1216C48.0415 20.9382 48.1834 20.5015 47.9972 20.1434C47.9262 20.0037 47.8065 19.8901 47.6645 19.8246L30.1778 11.5229C29.9649 11.4181 29.7121 11.4181 29.4993 11.5229L11.8617 20.3443C11.4981 20.5277 11.3517 20.9644 11.538 21.3225C11.6134 21.4622 11.7287 21.5758 11.875 21.6457L29.3707 29.9473C29.5835 30.0478 29.8319 30.0478 30.0403 29.9473ZM44.8617 36.3057C44.7287 39.3189 43.0523 42.0614 40.4046 43.6029C37.9477 44.8344 35.9565 43.5724 35.9609 40.7731C36.0939 37.7643 37.7659 35.0174 40.4179 33.4715C42.8704 32.2444 44.8617 33.5108 44.8617 36.3057ZM50.0683 43.8824V24.2571C50.0638 23.851 49.7268 23.5235 49.3099 23.5278C49.1901 23.5278 49.0748 23.5584 48.9684 23.6108L31.1757 32.5588C30.9273 32.6811 30.7721 32.93 30.7721 33.2007V52.8261C30.7765 53.2322 31.1136 53.5597 31.5304 53.5553C31.6502 53.5553 31.7655 53.5248 31.8719 53.4724L49.6735 44.5244C49.9175 44.4021 50.0683 44.1532 50.0683 43.8824ZM22.5498 45.6074L14.5404 41.8168C14.1723 41.6422 14.0171 41.2098 14.1945 40.8474C14.2122 40.8168 14.2255 40.7862 14.2477 40.76L18.2568 34.9563C18.4919 34.62 18.962 34.5327 19.3079 34.7598C19.4277 34.8384 19.5252 34.9519 19.5784 35.0873L23.5876 44.6772C23.7517 45.0441 23.5831 45.472 23.2062 45.6336C22.9933 45.7253 22.7494 45.7122 22.5498 45.6074Z" fill="#9BF07D"/>
</g>
<defs>
<filter id="filter0_d_304_2820" x="7.45703" y="8.44434" width="178.633" height="50.1113" filterUnits="userSpaceOnUse" color-interpolation-filters="sRGB">
<feFlood flood-opacity="0" result="BackgroundImageFix"/>
<feColorMatrix in="SourceAlpha" type="matrix" values="0 0 0 0 0 0 0 0 0 0 0 0 0 0 0 0 0 0 127 0" result="hardAlpha"/>
<feOffset dy="1"/>
<feGaussianBlur stdDeviation="2"/>
<feComposite in2="hardAlpha" operator="out"/>
<feColorMatrix type="matrix" values="0 0 0 0 0 0 0 0 0 0 0 0 0 0 0 0 0 0 0.04 0"/>
<feBlend mode="normal" in2="BackgroundImageFix" result="effect1_dropShadow_304_2820"/>
<feBlend mode="normal" in="SourceGraphic" in2="effect1_dropShadow_304_2820" result="shape"/>
</filter>
</defs>
</svg>
