<svg width="192" height="64" viewBox="0 0 192 64" fill="none" xmlns="http://www.w3.org/2000/svg">
<g filter="url(#filter0_d_304_2804)">
<path d="M55.3317 23.4476H67.8156C67.7589 23.5601 67.7164 23.6522 67.6804 23.7299C67.62 23.8607 67.5783 23.9511 67.5196 24.0305C65.4619 26.8546 63.3991 29.6737 61.3364 32.4927L61.332 32.4986C60.7343 33.3154 60.1389 34.134 59.5435 34.9527C57.909 37.1999 56.274 39.448 54.5905 41.6586C53.9182 42.5435 54.2507 43.3358 54.5645 44.0833L54.5829 44.1273C54.7018 44.4137 55.4708 44.5506 55.9464 44.5506C59.6488 44.5618 63.3512 44.5495 67.0536 44.5372C68.3599 44.5329 69.6662 44.5285 70.9726 44.5252C71.7434 44.5235 72.5154 44.5241 73.3125 44.5246C73.7209 44.5249 74.1372 44.5252 74.5621 44.5252C74.6278 43.6354 74.6925 42.7727 74.7586 41.891L74.8834 40.224H61.8607C61.9257 40.0957 61.9778 39.9836 62.0241 39.884C62.1095 39.7004 62.1753 39.559 62.2655 39.4358C63.6932 37.4705 65.1244 35.5088 66.556 33.5466C67.2344 32.6167 67.9139 31.6853 68.5922 30.7548C69.2059 29.9137 69.8173 29.0707 70.4286 28.2278C71.9689 26.1039 73.5092 23.9802 75.0883 21.8863C75.7384 21.0245 75.3843 20.2464 75.0504 19.5392C74.9138 19.2478 74.1498 19.1413 73.6717 19.1413C70.0419 19.1318 66.4107 19.1437 62.7803 19.1556C61.571 19.1595 60.3606 19.1635 59.1515 19.1666C58.4087 19.1683 57.6647 19.1678 56.897 19.1672C56.5041 19.1669 56.1044 19.1666 55.696 19.1666L55.561 20.7504C55.4878 21.609 55.4131 22.4844 55.3317 23.4476Z" fill="#9BF07D"/>
<path fill-rule="evenodd" clip-rule="evenodd" d="M126.577 42.5533C132.208 42.5558 136.314 38.2166 136.281 32.2958C136.25 26.92 132.365 23.0116 127.025 22.9812C121.513 22.9483 117.415 27.2951 117.402 33.1905C117.389 38.5816 121.277 42.5508 126.577 42.5533ZM122.64 31.7844C122.773 31.0891 122.924 30.3025 123.205 29.5667C123.845 27.8888 125.297 27.0524 127.086 27.1082C128.737 27.1589 129.954 28.0561 130.587 29.734C131.262 31.5285 131.272 33.3686 130.791 35.1986C130.243 37.2922 128.674 38.524 126.706 38.5062C124.801 38.4885 123.453 37.3758 122.891 35.2594C122.757 34.7479 122.69 34.2196 122.612 33.5995C122.573 33.2886 122.531 32.9544 122.476 32.588C122.533 32.3424 122.585 32.071 122.64 31.7844Z" fill="#9BF07D"/>
<path fill-rule="evenodd" clip-rule="evenodd" d="M79.1059 31.9713C79.3493 31.9441 79.5961 31.9165 79.8441 31.908C82.1003 31.8391 84.3565 31.7766 86.6127 31.7142L88.3058 31.6672C89.4213 31.6368 91.0656 30.5317 91.0757 29.7131C91.1263 25.9771 89.3379 22.1777 85.1437 21.2729C78.7968 19.9067 73.272 24.616 73.444 31.4062C73.5402 35.1878 75.0023 38.2698 78.6931 39.7475C82.4015 41.2353 86.0544 40.736 89.52 38.83C89.8413 38.6551 90.2156 38.2496 90.2409 37.9251C90.3032 37.0868 90.2939 36.2432 90.284 35.3463C90.2802 35.0039 90.2764 34.6537 90.2764 34.2931C90.1205 34.3745 89.9785 34.4557 89.8445 34.5323C89.5738 34.687 89.3353 34.8234 89.0798 34.9064C88.6155 35.0566 88.1529 35.2206 87.6902 35.3848C86.489 35.8108 85.2864 36.2373 84.0483 36.4221C80.9394 36.8936 78.5337 34.8025 78.7437 32.0094C78.8633 31.9984 78.9842 31.9849 79.1059 31.9713ZM82.7578 24.8876C80.5823 24.9357 78.8824 26.6491 78.7736 28.8618H86.3398C86.1298 26.1042 84.9333 24.8394 82.7578 24.8876Z" fill="#9BF07D"/>
<path d="M116.16 25.0849C116.132 24.7177 116.102 24.3643 116.072 24.0204C116.006 23.2538 115.944 22.5344 115.93 21.8153C115.914 21.0093 115.512 20.7356 114.784 20.6291C110.301 19.96 106.876 22.4996 106.254 27.0087C106.157 27.7094 106.098 28.4148 106.036 29.1586C106.007 29.5069 105.977 29.864 105.943 30.2327C105.785 30.2327 105.633 30.2282 105.485 30.2238C105.146 30.2139 104.829 30.2046 104.521 30.2504C104.235 30.2935 103.792 30.4506 103.732 30.6534C103.483 31.4712 103.287 32.3056 103.074 33.2117C102.999 33.5328 102.921 33.8629 102.839 34.2044H106.008V48.5603H111.389V34.1309H115.768V30.1946H111.386C111.042 26.7577 111.847 24.2586 116.16 25.0849Z" fill="#9BF07D"/>
<path d="M91.4906 28.5953C91.7833 28.5953 92.0574 28.5883 92.3178 28.5817C92.9172 28.5665 93.4438 28.5531 93.957 28.6308C94.2707 28.679 94.7614 29.1174 94.764 29.3836C94.7914 31.547 94.7739 33.7117 94.7563 35.8768C94.7496 36.7049 94.7429 37.533 94.7387 38.3611C94.7333 39.4322 94.7343 40.5045 94.7353 41.6001C94.7357 42.0439 94.7361 42.4933 94.7361 42.9462H100.031V28.5598H104.41V24.6338C104.037 24.6338 103.67 24.6317 103.307 24.6296C102.471 24.6248 101.656 24.6202 100.84 24.6414C100.193 24.6591 99.9548 24.4107 99.9371 23.7593C99.8486 20.5886 101.058 18.7104 104.392 19.4328C104.433 19.442 104.48 19.427 104.566 19.3997C104.622 19.3819 104.694 19.3589 104.792 19.3339C104.768 19.0314 104.746 18.7265 104.725 18.42C104.663 17.5402 104.6 16.6474 104.485 15.7602C104.455 15.5143 104.119 15.1975 103.858 15.1113C101.571 14.3611 98.1436 15.4332 96.6056 17.3291C95.2623 18.9842 94.7589 20.9231 94.8247 22.9964C94.8626 24.1801 94.6678 24.8695 93.2689 24.6642C92.9831 24.6211 92.4342 24.9303 92.3481 25.1914C92.1053 25.9287 91.9312 26.6895 91.7366 27.5399C91.6597 27.8762 91.5795 28.2269 91.4906 28.5953Z" fill="#9BF07D"/>
</g>
<defs>
<filter id="filter0_d_304_2804" x="50.1992" y="11.8701" width="90.082" height="41.6904" filterUnits="userSpaceOnUse" color-interpolation-filters="sRGB">
<feFlood flood-opacity="0" result="BackgroundImageFix"/>
<feColorMatrix in="SourceAlpha" type="matrix" values="0 0 0 0 0 0 0 0 0 0 0 0 0 0 0 0 0 0 127 0" result="hardAlpha"/>
<feOffset dy="1"/>
<feGaussianBlur stdDeviation="2"/>
<feComposite in2="hardAlpha" operator="out"/>
<feColorMatrix type="matrix" values="0 0 0 0 0 0 0 0 0 0 0 0 0 0 0 0 0 0 0.04 0"/>
<feBlend mode="normal" in2="BackgroundImageFix" result="effect1_dropShadow_304_2804"/>
<feBlend mode="normal" in="SourceGraphic" in2="effect1_dropShadow_304_2804" result="shape"/>
</filter>
</defs>
</svg>
